<?xml version="1.0" encoding="UTF-8" standalone="no"?>
<!DOCTYPE svg PUBLIC "-//W3C//DTD SVG 1.1//EN"
 "http://www.w3.org/Graphics/SVG/1.1/DTD/svg11.dtd">
<!-- Generated by graphviz version 2.30.1 (20130221.2233)
 -->
<!-- Title: controllers_diagram Pages: 1 -->
<svg width="2056pt" height="1246pt"
 viewBox="0.00 0.00 2056.43 1246.14" xmlns="http://www.w3.org/2000/svg" xmlns:xlink="http://www.w3.org/1999/xlink">
<g id="graph0" class="graph" transform="scale(1 1) rotate(0) translate(4 1242.14)">
<title>controllers_diagram</title>
<polygon fill="white" stroke="white" points="-4,5 -4,-1242.14 2053.43,-1242.14 2053.43,5 -4,5"/>
<!-- _diagram_info -->
<g id="node1" class="node"><title>_diagram_info</title>
<text text-anchor="start" x="1542" y="-63.6" font-family="Times,serif" font-size="13.00">Controllers diagram</text>
<text text-anchor="start" x="1542" y="-49.6" font-family="Times,serif" font-size="13.00">Date: Mar 21 2013 &#45; 22:42</text>
<text text-anchor="start" x="1542" y="-35.6" font-family="Times,serif" font-size="13.00">Migration version: 20130222222929</text>
<text text-anchor="start" x="1542" y="-21.6" font-family="Times,serif" font-size="13.00">Generated by RailRoady 1.1.0</text>
<text text-anchor="start" x="1542" y="-7.6" font-family="Times,serif" font-size="13.00">http://railroady.prestonlee.com</text>
</g>
<!-- ApplicationController -->
<g id="node2" class="node"><title>ApplicationController</title>
<ellipse fill="none" stroke="black" cx="1003.1" cy="-581.854" rx="90.9839" ry="18"/>
<text text-anchor="middle" x="1003.1" y="-578.154" font-family="Times,serif" font-size="14.00">ApplicationController</text>
</g>
<!-- CitationsController -->
<g id="node3" class="node"><title>CitationsController</title>
<ellipse fill="none" stroke="black" cx="1646.78" cy="-715.766" rx="81.4863" ry="18"/>
<text text-anchor="middle" x="1646.78" y="-712.066" font-family="Times,serif" font-size="14.00">CitationsController</text>
</g>
<!-- ApplicationController&#45;&gt;CitationsController -->
<g id="edge1" class="edge"><title>ApplicationController&#45;&gt;CitationsController</title>
<path fill="none" stroke="black" d="M1065.99,-594.937C1190.31,-620.802 1465.97,-678.15 1587.39,-703.41"/>
</g>
<!-- CitationsSitesController -->
<g id="node4" class="node"><title>CitationsSitesController</title>
<ellipse fill="none" stroke="black" cx="758.924" cy="-142.266" rx="98.5829" ry="18"/>
<text text-anchor="middle" x="758.924" y="-138.566" font-family="Times,serif" font-size="14.00">CitationsSitesController</text>
</g>
<!-- ApplicationController&#45;&gt;CitationsSitesController -->
<g id="edge2" class="edge"><title>ApplicationController&#45;&gt;CitationsSitesController</title>
<path fill="none" stroke="black" d="M978.568,-564.264C937,-533.066 853.116,-463.805 810.645,-384.484 769.848,-308.289 761.231,-202.424 759.411,-160.452"/>
</g>
<!-- CitationsTreatmentsController -->
<g id="node5" class="node"><title>CitationsTreatmentsController</title>
<ellipse fill="none" stroke="black" cx="697.519" cy="-1211.36" rx="122.379" ry="18"/>
<text text-anchor="middle" x="697.519" y="-1207.66" font-family="Times,serif" font-size="14.00">CitationsTreatmentsController</text>
</g>
<!-- ApplicationController&#45;&gt;CitationsTreatmentsController -->
<g id="edge3" class="edge"><title>ApplicationController&#45;&gt;CitationsTreatmentsController</title>
<path fill="none" stroke="black" d="M996.786,-599.85C984.511,-633.652 955.419,-708.302 919.084,-764.674 855.124,-863.903 796.703,-859.199 745.072,-965.366 706.835,-1043.99 699.327,-1150.8 697.866,-1193.07"/>
</g>
<!-- ContactsController -->
<g id="node6" class="node"><title>ContactsController</title>
<ellipse fill="none" stroke="black" cx="1427.45" cy="-628.826" rx="79.8859" ry="18"/>
<text text-anchor="middle" x="1427.45" y="-625.126" font-family="Times,serif" font-size="14.00">ContactsController</text>
</g>
<!-- ApplicationController&#45;&gt;ContactsController -->
<g id="edge4" class="edge"><title>ApplicationController&#45;&gt;ContactsController</title>
<path fill="none" stroke="black" d="M1081.7,-591.052C1103.42,-593.563 1126.99,-596.263 1148.75,-598.697 1218.76,-606.529 1298.7,-615.137 1354.96,-621.139"/>
</g>
<!-- CovariatesController -->
<g id="node7" class="node"><title>CovariatesController</title>
<ellipse fill="none" stroke="black" cx="604.794" cy="-675.556" rx="87.1846" ry="18"/>
<text text-anchor="middle" x="604.794" y="-671.856" font-family="Times,serif" font-size="14.00">CovariatesController</text>
</g>
<!-- ApplicationController&#45;&gt;CovariatesController -->
<g id="edge5" class="edge"><title>ApplicationController&#45;&gt;CovariatesController</title>
<path fill="none" stroke="black" d="M944.33,-595.68C868.59,-613.498 737.736,-644.282 662.512,-661.978"/>
</g>
<!-- CultivarsController -->
<g id="node8" class="node"><title>CultivarsController</title>
<ellipse fill="none" stroke="black" cx="102.249" cy="-221.66" rx="81.4863" ry="18"/>
<text text-anchor="middle" x="102.249" y="-217.96" font-family="Times,serif" font-size="14.00">CultivarsController</text>
</g>
<!-- ApplicationController&#45;&gt;CultivarsController -->
<g id="edge6" class="edge"><title>ApplicationController&#45;&gt;CultivarsController</title>
<path fill="none" stroke="black" d="M958.22,-566.098C882.487,-539.332 724.684,-482.783 592.938,-430.475 421.488,-362.402 219.673,-273.798 138.622,-237.859"/>
</g>
<!-- DbfilesController -->
<g id="node9" class="node"><title>DbfilesController</title>
<ellipse fill="none" stroke="black" cx="1627.72" cy="-446.109" rx="74.187" ry="18"/>
<text text-anchor="middle" x="1627.72" y="-442.409" font-family="Times,serif" font-size="14.00">DbfilesController</text>
</g>
<!-- ApplicationController&#45;&gt;DbfilesController -->
<g id="edge7" class="edge"><title>ApplicationController&#45;&gt;DbfilesController</title>
<path fill="none" stroke="black" d="M1064.41,-568.528C1185.98,-542.109 1455.86,-483.458 1572.38,-458.135"/>
</g>
<!-- EnsemblesController -->
<g id="node10" class="node"><title>EnsemblesController</title>
<ellipse fill="none" stroke="black" cx="899.983" cy="-384.669" rx="87.9851" ry="18"/>
<text text-anchor="middle" x="899.983" y="-380.969" font-family="Times,serif" font-size="14.00">EnsemblesController</text>
</g>
<!-- ApplicationController&#45;&gt;EnsemblesController -->
<g id="edge8" class="edge"><title>ApplicationController&#45;&gt;EnsemblesController</title>
<path fill="none" stroke="black" d="M993.585,-563.656C973.941,-526.092 929.101,-440.349 909.477,-402.822"/>
</g>
<!-- EntitiesController -->
<g id="node11" class="node"><title>EntitiesController</title>
<ellipse fill="none" stroke="black" cx="1274.61" cy="-140.718" rx="76.0865" ry="18"/>
<text text-anchor="middle" x="1274.61" y="-137.018" font-family="Times,serif" font-size="14.00">EntitiesController</text>
</g>
<!-- ApplicationController&#45;&gt;EntitiesController -->
<g id="edge9" class="edge"><title>ApplicationController&#45;&gt;EntitiesController</title>
<path fill="none" stroke="black" d="M1005.32,-563.733C1010.25,-528.182 1024.33,-447.574 1056.55,-388.005 1110.2,-288.826 1210.41,-195.852 1253.75,-158.264"/>
</g>
<!-- ErrorsController -->
<g id="node12" class="node"><title>ErrorsController</title>
<ellipse fill="none" stroke="black" cx="1128.99" cy="-388.182" rx="70.6878" ry="18"/>
<text text-anchor="middle" x="1128.99" y="-384.482" font-family="Times,serif" font-size="14.00">ErrorsController</text>
</g>
<!-- ApplicationController&#45;&gt;ErrorsController -->
<g id="edge10" class="edge"><title>ApplicationController&#45;&gt;ErrorsController</title>
<path fill="none" stroke="black" d="M1014.72,-563.981C1038.7,-527.085 1093.45,-442.87 1117.4,-406.012"/>
</g>
<!-- FormatsController -->
<g id="node13" class="node"><title>FormatsController</title>
<ellipse fill="none" stroke="black" cx="77.9931" cy="-668.418" rx="77.9862" ry="18"/>
<text text-anchor="middle" x="77.9931" y="-664.718" font-family="Times,serif" font-size="14.00">FormatsController</text>
</g>
<!-- ApplicationController&#45;&gt;FormatsController -->
<g id="edge11" class="edge"><title>ApplicationController&#45;&gt;FormatsController</title>
<path fill="none" stroke="black" d="M920.597,-589.574C741.575,-606.325 319.976,-645.775 150.454,-661.637"/>
</g>
<!-- InputsController -->
<g id="node14" class="node"><title>InputsController</title>
<ellipse fill="none" stroke="black" cx="1977.59" cy="-544.107" rx="70.6878" ry="18"/>
<text text-anchor="middle" x="1977.59" y="-540.407" font-family="Times,serif" font-size="14.00">InputsController</text>
</g>
<!-- ApplicationController&#45;&gt;InputsController -->
<g id="edge12" class="edge"><title>ApplicationController&#45;&gt;InputsController</title>
<path fill="none" stroke="black" d="M1085.69,-574.197C1123.28,-570.971 1168.36,-567.461 1209.01,-565.266 1465.59,-551.409 1770.88,-546.428 1906.54,-544.809"/>
</g>
<!-- InputsRunsController -->
<g id="node15" class="node"><title>InputsRunsController</title>
<ellipse fill="none" stroke="black" cx="1945.73" cy="-852.163" rx="89.8845" ry="18"/>
<text text-anchor="middle" x="1945.73" y="-848.463" font-family="Times,serif" font-size="14.00">InputsRunsController</text>
</g>
<!-- ApplicationController&#45;&gt;InputsRunsController -->
<g id="edge13" class="edge"><title>ApplicationController&#45;&gt;InputsRunsController</title>
<path fill="none" stroke="black" d="M1054.79,-596.675C1219.31,-643.854 1729.66,-790.202 1894.1,-837.358"/>
</g>
<!-- LikelihoodsController -->
<g id="node16" class="node"><title>LikelihoodsController</title>
<ellipse fill="none" stroke="black" cx="1146.02" cy="-1217.49" rx="91.784" ry="18"/>
<text text-anchor="middle" x="1146.02" y="-1213.79" font-family="Times,serif" font-size="14.00">LikelihoodsController</text>
</g>
<!-- ApplicationController&#45;&gt;LikelihoodsController -->
<g id="edge14" class="edge"><title>ApplicationController&#45;&gt;LikelihoodsController</title>
<path fill="none" stroke="black" d="M997.634,-599.917C988.511,-632.874 972.567,-704.74 987.297,-763.07 1012.4,-862.493 1078.75,-859.576 1114.07,-955.848 1145.98,-1042.85 1147.4,-1155.92 1146.59,-1199.38"/>
</g>
<!-- MachinesController -->
<g id="node17" class="node"><title>MachinesController</title>
<ellipse fill="none" stroke="black" cx="1365.54" cy="-405.236" rx="83.3857" ry="18"/>
<text text-anchor="middle" x="1365.54" y="-401.536" font-family="Times,serif" font-size="14.00">MachinesController</text>
</g>
<!-- ApplicationController&#45;&gt;MachinesController -->
<g id="edge15" class="edge"><title>ApplicationController&#45;&gt;MachinesController</title>
<path fill="none" stroke="black" d="M1037.53,-565.079C1106.88,-531.282 1262.67,-455.366 1331.61,-421.77"/>
</g>
<!-- ManagementsController -->
<g id="node18" class="node"><title>ManagementsController</title>
<ellipse fill="none" stroke="black" cx="1559.16" cy="-149.593" rx="99.3824" ry="18"/>
<text text-anchor="middle" x="1559.16" y="-145.893" font-family="Times,serif" font-size="14.00">ManagementsController</text>
</g>
<!-- ApplicationController&#45;&gt;ManagementsController -->
<g id="edge16" class="edge"><title>ApplicationController&#45;&gt;ManagementsController</title>
<path fill="none" stroke="black" d="M1025.59,-564.373C1115.19,-494.718 1446.29,-237.335 1536.39,-167.291"/>
</g>
<!-- ManagementsTreatmentsController -->
<g id="node19" class="node"><title>ManagementsTreatmentsController</title>
<ellipse fill="none" stroke="black" cx="437.805" cy="-1194.23" rx="140.275" ry="18"/>
<text text-anchor="middle" x="437.805" y="-1190.53" font-family="Times,serif" font-size="14.00">ManagementsTreatmentsController</text>
</g>
<!-- ApplicationController&#45;&gt;ManagementsTreatmentsController -->
<g id="edge17" class="edge"><title>ApplicationController&#45;&gt;ManagementsTreatmentsController</title>
<path fill="none" stroke="black" d="M975.42,-599.024C930.101,-628.264 839.387,-691.66 782.002,-764.29 735.754,-822.825 750.921,-853.926 708.021,-914.958 630.233,-1025.62 508.541,-1134.25 459.431,-1176.15"/>
</g>
<!-- MapsController -->
<g id="node20" class="node"><title>MapsController</title>
<ellipse fill="none" stroke="black" cx="91.0341" cy="-1127.64" rx="68.4888" ry="18"/>
<text text-anchor="middle" x="91.0341" y="-1123.94" font-family="Times,serif" font-size="14.00">MapsController</text>
</g>
<!-- ApplicationController&#45;&gt;MapsController -->
<g id="edge18" class="edge"><title>ApplicationController&#45;&gt;MapsController</title>
<path fill="none" stroke="black" d="M974.298,-599.089C837.433,-680.991 253.842,-1030.22 118.942,-1110.94"/>
</g>
<!-- MethodsController -->
<g id="node21" class="node"><title>MethodsController</title>
<ellipse fill="none" stroke="black" cx="626.479" cy="-914.841" rx="79.8859" ry="18"/>
<text text-anchor="middle" x="626.479" y="-911.141" font-family="Times,serif" font-size="14.00">MethodsController</text>
</g>
<!-- ApplicationController&#45;&gt;MethodsController -->
<g id="edge19" class="edge"><title>ApplicationController&#45;&gt;MethodsController</title>
<path fill="none" stroke="black" d="M980.647,-599.413C940.139,-631.301 852.492,-701.268 782.002,-764.29 730.174,-810.627 672.035,-868.615 643.772,-897.216"/>
</g>
<!-- ModelsController -->
<g id="node22" class="node"><title>ModelsController</title>
<ellipse fill="none" stroke="black" cx="802.098" cy="-577.135" rx="75.2868" ry="18"/>
<text text-anchor="middle" x="802.098" y="-573.435" font-family="Times,serif" font-size="14.00">ModelsController</text>
</g>
<!-- ApplicationController&#45;&gt;ModelsController -->
<g id="edge20" class="edge"><title>ApplicationController&#45;&gt;ModelsController</title>
<path fill="none" stroke="black" d="M912.596,-579.729C900.821,-579.453 888.862,-579.172 877.372,-578.902"/>
</g>
<!-- PftsController -->
<g id="node23" class="node"><title>PftsController</title>
<ellipse fill="none" stroke="black" cx="396.094" cy="-502.811" rx="62.2891" ry="18"/>
<text text-anchor="middle" x="396.094" y="-499.111" font-family="Times,serif" font-size="14.00">PftsController</text>
</g>
<!-- ApplicationController&#45;&gt;PftsController -->
<g id="edge21" class="edge"><title>ApplicationController&#45;&gt;PftsController</title>
<path fill="none" stroke="black" d="M926.838,-571.923C803.451,-555.856 562.821,-524.521 453.092,-510.233"/>
</g>
<!-- PftsPriorsController -->
<g id="node24" class="node"><title>PftsPriorsController</title>
<ellipse fill="none" stroke="black" cx="1251.98" cy="-962.178" rx="83.6854" ry="18"/>
<text text-anchor="middle" x="1251.98" y="-958.478" font-family="Times,serif" font-size="14.00">PftsPriorsController</text>
</g>
<!-- ApplicationController&#45;&gt;PftsPriorsController -->
<g id="edge22" class="edge"><title>ApplicationController&#45;&gt;PftsPriorsController</title>
<path fill="none" stroke="black" d="M1022.86,-599.438C1056.25,-629.99 1124.38,-696.053 1167.28,-763.114 1206.75,-824.807 1235.23,-908.015 1246.56,-944.165"/>
</g>
<!-- PftsSpeciesController -->
<g id="node25" class="node"><title>PftsSpeciesController</title>
<ellipse fill="none" stroke="black" cx="1621.62" cy="-1177.26" rx="90.1842" ry="18"/>
<text text-anchor="middle" x="1621.62" y="-1173.56" font-family="Times,serif" font-size="14.00">PftsSpeciesController</text>
</g>
<!-- ApplicationController&#45;&gt;PftsSpeciesController -->
<g id="edge23" class="edge"><title>ApplicationController&#45;&gt;PftsSpeciesController</title>
<path fill="none" stroke="black" d="M1021.61,-599.673C1112.67,-687.325 1512.29,-1072.01 1603.18,-1159.51"/>
</g>
<!-- PosteriorsController -->
<g id="node26" class="node"><title>PosteriorsController</title>
<ellipse fill="none" stroke="black" cx="927.7" cy="-1220.14" rx="84.485" ry="18"/>
<text text-anchor="middle" x="927.7" y="-1216.44" font-family="Times,serif" font-size="14.00">PosteriorsController</text>
</g>
<!-- ApplicationController&#45;&gt;PosteriorsController -->
<g id="edge24" class="edge"><title>ApplicationController&#45;&gt;PosteriorsController</title>
<path fill="none" stroke="black" d="M1000.93,-600.131C994.479,-654.346 974.908,-819.001 958.785,-955.593 947.862,-1048.13 934.876,-1158.89 929.842,-1201.86"/>
</g>
<!-- PosteriorsRunsController -->
<g id="node27" class="node"><title>PosteriorsRunsController</title>
<ellipse fill="none" stroke="black" cx="1018.58" cy="-136" rx="103.182" ry="18"/>
<text text-anchor="middle" x="1018.58" y="-132.3" font-family="Times,serif" font-size="14.00">PosteriorsRunsController</text>
</g>
<!-- ApplicationController&#45;&gt;PosteriorsRunsController -->
<g id="edge25" class="edge"><title>ApplicationController&#45;&gt;PosteriorsRunsController</title>
<path fill="none" stroke="black" d="M1003.73,-563.823C1006.22,-491.978 1015.44,-226.501 1017.95,-154.255"/>
</g>
<!-- PriorsController -->
<g id="node28" class="node"><title>PriorsController</title>
<ellipse fill="none" stroke="black" cx="1964.5" cy="-1180.33" rx="69.5877" ry="18"/>
<text text-anchor="middle" x="1964.5" y="-1176.63" font-family="Times,serif" font-size="14.00">PriorsController</text>
</g>
<!-- ApplicationController&#45;&gt;PriorsController -->
<g id="edge26" class="edge"><title>ApplicationController&#45;&gt;PriorsController</title>
<path fill="none" stroke="black" d="M1037.09,-598.735C1098.47,-629.45 1231.58,-697.102 1340.74,-759.811 1585.64,-900.488 1861.89,-1103.56 1941.77,-1163.23"/>
</g>
<!-- RunsController -->
<g id="node29" class="node"><title>RunsController</title>
<ellipse fill="none" stroke="black" cx="850.543" cy="-764.482" rx="66.8882" ry="18"/>
<text text-anchor="middle" x="850.543" y="-760.782" font-family="Times,serif" font-size="14.00">RunsController</text>
</g>
<!-- ApplicationController&#45;&gt;RunsController -->
<g id="edge27" class="edge"><title>ApplicationController&#45;&gt;RunsController</title>
<path fill="none" stroke="black" d="M988.196,-599.697C958.955,-634.701 894.393,-711.99 865.285,-746.835"/>
</g>
<!-- SessionsController -->
<g id="node30" class="node"><title>SessionsController</title>
<ellipse fill="none" stroke="black" cx="650.338" cy="-416.664" rx="79.0865" ry="18"/>
<text text-anchor="middle" x="650.338" y="-412.964" font-family="Times,serif" font-size="14.00">SessionsController</text>
</g>
<!-- ApplicationController&#45;&gt;SessionsController -->
<g id="edge28" class="edge"><title>ApplicationController&#45;&gt;SessionsController</title>
<path fill="none" stroke="black" d="M967.662,-565.258C899.784,-533.473 752.214,-464.37 684.972,-432.882"/>
</g>
<!-- SitesController -->
<g id="node31" class="node"><title>SitesController</title>
<ellipse fill="none" stroke="black" cx="1946.73" cy="-184.071" rx="65.7887" ry="18"/>
<text text-anchor="middle" x="1946.73" y="-180.371" font-family="Times,serif" font-size="14.00">SitesController</text>
</g>
<!-- ApplicationController&#45;&gt;SitesController -->
<g id="edge29" class="edge"><title>ApplicationController&#45;&gt;SitesController</title>
<path fill="none" stroke="black" d="M1046.57,-566.011C1123.47,-537.783 1288.31,-476.367 1425.3,-419.14 1611.99,-341.156 1831.81,-238.401 1913.76,-199.705"/>
</g>
<!-- SpeciesController -->
<g id="node32" class="node"><title>SpeciesController</title>
<ellipse fill="none" stroke="black" cx="1036.43" cy="-955.72" rx="76.0865" ry="18"/>
<text text-anchor="middle" x="1036.43" y="-952.02" font-family="Times,serif" font-size="14.00">SpeciesController</text>
</g>
<!-- ApplicationController&#45;&gt;SpeciesController -->
<g id="edge30" class="edge"><title>ApplicationController&#45;&gt;SpeciesController</title>
<path fill="none" stroke="black" d="M999.519,-599.853C993.488,-632.411 982.421,-703.265 987.297,-763.07 992.668,-828.951 1017.5,-904.07 1029.66,-937.741"/>
</g>
<!-- StaticController -->
<g id="node33" class="node"><title>StaticController</title>
<ellipse fill="none" stroke="black" cx="1290.49" cy="-773.557" rx="68.7879" ry="18"/>
<text text-anchor="middle" x="1290.49" y="-769.857" font-family="Times,serif" font-size="14.00">StaticController</text>
</g>
<!-- ApplicationController&#45;&gt;StaticController -->
<g id="edge31" class="edge"><title>ApplicationController&#45;&gt;StaticController</title>
<path fill="none" stroke="black" d="M1029.11,-599.204C1083.97,-635.794 1210.9,-720.468 1265.16,-756.658"/>
</g>
<!-- TraitsController -->
<g id="node34" class="node"><title>TraitsController</title>
<ellipse fill="none" stroke="black" cx="471.136" cy="-158.319" rx="69.5877" ry="18"/>
<text text-anchor="middle" x="471.136" y="-154.619" font-family="Times,serif" font-size="14.00">TraitsController</text>
</g>
<!-- ApplicationController&#45;&gt;TraitsController -->
<g id="edge32" class="edge"><title>ApplicationController&#45;&gt;TraitsController</title>
<path fill="none" stroke="black" d="M980.921,-564.194C894.203,-495.152 578.668,-243.933 492.823,-175.586"/>
</g>
<!-- TreatmentsController -->
<g id="node35" class="node"><title>TreatmentsController</title>
<ellipse fill="none" stroke="black" cx="835.715" cy="-965.382" rx="89.0842" ry="18"/>
<text text-anchor="middle" x="835.715" y="-961.682" font-family="Times,serif" font-size="14.00">TreatmentsController</text>
</g>
<!-- ApplicationController&#45;&gt;TreatmentsController -->
<g id="edge33" class="edge"><title>ApplicationController&#45;&gt;TreatmentsController</title>
<path fill="none" stroke="black" d="M995.252,-599.838C967.136,-664.259 871.635,-883.077 843.546,-947.437"/>
</g>
<!-- UsersController -->
<g id="node36" class="node"><title>UsersController</title>
<ellipse fill="none" stroke="black" cx="1507.19" cy="-908.631" rx="68.7879" ry="18"/>
<text text-anchor="middle" x="1507.19" y="-904.931" font-family="Times,serif" font-size="14.00">UsersController</text>
</g>
<!-- ApplicationController&#45;&gt;UsersController -->
<g id="edge34" class="edge"><title>ApplicationController&#45;&gt;UsersController</title>
<path fill="none" stroke="black" d="M1044.07,-598.002C1113.71,-626.666 1257.67,-691.26 1360.98,-773.717 1410.12,-812.93 1463.29,-864.577 1489.92,-891.159"/>
</g>
<!-- VariablesController -->
<g id="node37" class="node"><title>VariablesController</title>
<ellipse fill="none" stroke="black" cx="1208.83" cy="-584.866" rx="83.3857" ry="18"/>
<text text-anchor="middle" x="1208.83" y="-581.166" font-family="Times,serif" font-size="14.00">VariablesController</text>
</g>
<!-- ApplicationController&#45;&gt;VariablesController -->
<g id="edge35" class="edge"><title>ApplicationController&#45;&gt;VariablesController</title>
<path fill="none" stroke="black" d="M1093.94,-583.184C1104.48,-583.338 1115.2,-583.495 1125.64,-583.648"/>
</g>
<!-- WorkflowsController -->
<g id="node38" class="node"><title>WorkflowsController</title>
<ellipse fill="none" stroke="black" cx="1077.29" cy="-763.092" rx="88.2844" ry="18"/>
<text text-anchor="middle" x="1077.29" y="-759.392" font-family="Times,serif" font-size="14.00">WorkflowsController</text>
</g>
<!-- ApplicationController&#45;&gt;WorkflowsController -->
<g id="edge36" class="edge"><title>ApplicationController&#45;&gt;WorkflowsController</title>
<path fill="none" stroke="black" d="M1010.49,-599.894C1024.71,-634.634 1055.74,-710.442 1069.93,-745.124"/>
</g>
<!-- YieldsController -->
<g id="node39" class="node"><title>YieldsController</title>
<ellipse fill="none" stroke="black" cx="1374.92" cy="-1211.39" rx="72.2875" ry="18"/>
<text text-anchor="middle" x="1374.92" y="-1207.69" font-family="Times,serif" font-size="14.00">YieldsController</text>
</g>
<!-- ApplicationController&#45;&gt;YieldsController -->
<g id="edge37" class="edge"><title>ApplicationController&#45;&gt;YieldsController</title>
<path fill="none" stroke="black" d="M1025.94,-599.41C1088.24,-648.735 1261.48,-795.863 1337.42,-962.217 1374.03,-1042.41 1376.24,-1150.74 1375.52,-1193.23"/>
</g>
<!-- YieldsviewsController -->
<g id="node40" class="node"><title>YieldsviewsController</title>
<ellipse fill="none" stroke="black" cx="380.195" cy="-840.97" rx="92.8835" ry="18"/>
<text text-anchor="middle" x="380.195" y="-837.27" font-family="Times,serif" font-size="14.00">YieldsviewsController</text>
</g>
<!-- ApplicationController&#45;&gt;YieldsviewsController -->
<g id="edge38" class="edge"><title>ApplicationController&#45;&gt;YieldsviewsController</title>
<path fill="none" stroke="black" d="M963.663,-598.259C851.473,-644.928 531.437,-778.057 419.46,-824.637"/>
</g>
</g>
</svg>
