<?xml version="1.0" encoding="UTF-8" standalone="no"?>
<!DOCTYPE svg PUBLIC "-//W3C//DTD SVG 1.1//EN"
 "http://www.w3.org/Graphics/SVG/1.1/DTD/svg11.dtd">
<!-- Generated by graphviz version 2.30.1 (20130221.2233)
 -->
<!-- Title: models_diagram Pages: 1 -->
<svg width="3253pt" height="592pt"
 viewBox="0.00 0.00 3253.00 592.00" xmlns="http://www.w3.org/2000/svg" xmlns:xlink="http://www.w3.org/1999/xlink">
<g id="graph0" class="graph" transform="scale(1 1) rotate(0) translate(4 588)">
<title>models_diagram</title>
<polygon fill="white" stroke="white" points="-4,5 -4,-588 3250,-588 3250,5 -4,5"/>
<!-- _diagram_info -->
<g id="node1" class="node"><title>_diagram_info</title>
<text text-anchor="start" x="903" y="-569.6" font-family="Times,serif" font-size="13.00">Models diagram</text>
<text text-anchor="start" x="903" y="-555.6" font-family="Times,serif" font-size="13.00">Date: Mar 21 2013 &#45; 22:42</text>
<text text-anchor="start" x="903" y="-541.6" font-family="Times,serif" font-size="13.00">Migration version: 20130222222929</text>
<text text-anchor="start" x="903" y="-527.6" font-family="Times,serif" font-size="13.00">Generated by RailRoady 1.1.0</text>
<text text-anchor="start" x="903" y="-513.6" font-family="Times,serif" font-size="13.00">http://railroady.prestonlee.com</text>
</g>
<!-- Citation -->
<g id="node2" class="node"><title>Citation</title>
<ellipse fill="none" stroke="black" cx="1041" cy="-450" rx="39.9464" ry="18"/>
<text text-anchor="middle" x="1041" y="-446.3" font-family="Times,serif" font-size="14.00">Citation</text>
</g>
<!-- CitationsSites -->
<g id="node3" class="node"><title>CitationsSites</title>
<ellipse fill="none" stroke="black" cx="810" cy="-180" rx="61.1419" ry="18"/>
<text text-anchor="middle" x="810" y="-176.3" font-family="Times,serif" font-size="14.00">CitationsSites</text>
</g>
<!-- Citation&#45;&gt;CitationsSites -->
<g id="edge1" class="edge"><title>Citation&#45;&gt;CitationsSites</title>
<path fill="none" stroke="#56042c" d="M1014.61,-429.008C990.232,-409.109 954.877,-376.356 935,-340 915.296,-303.96 937.433,-283.734 914,-250 898.749,-228.044 874.043,-211.225 852.537,-199.691"/>
<ellipse fill="none" stroke="#56042c" cx="1017.74" cy="-431.524" rx="4.00002" ry="4.00002"/>
<polygon fill="#56042c" stroke="#56042c" points="852.447,-199.644 845.611,-191.07 848,-197.358 843.553,-195.072 843.553,-195.072 843.553,-195.072 848,-197.358 841.496,-199.074 852.447,-199.644 852.447,-199.644"/>
<text text-anchor="middle" x="972" y="-318.3" font-family="Times,serif" font-size="14.00">citation_sites</text>
</g>
<!-- Site -->
<g id="node34" class="node"><title>Site</title>
<ellipse fill="none" stroke="black" cx="671" cy="-268" rx="27" ry="18"/>
<text text-anchor="middle" x="671" y="-264.3" font-family="Times,serif" font-size="14.00">Site</text>
</g>
<!-- Citation&#45;&gt;Site -->
<g id="edge2" class="edge"><title>Citation&#45;&gt;Site</title>
<path fill="none" stroke="#b59d7f" d="M991.215,-445.52C914.741,-439.295 772.997,-424 733,-394 724.38,-387.534 697.79,-329.668 682.375,-294.978"/>
<polygon fill="#b59d7f" stroke="#b59d7f" points="991.587,-445.55 1001.2,-450.825 996.571,-445.944 1001.56,-446.339 1001.56,-446.339 1001.56,-446.339 996.571,-445.944 1001.91,-441.853 991.587,-445.55 991.587,-445.55"/>
<polygon fill="#b59d7f" stroke="#b59d7f" points="682.208,-294.6 682.28,-283.635 680.186,-290.027 678.165,-285.454 678.165,-285.454 678.165,-285.454 680.186,-290.027 674.049,-287.274 682.208,-294.6 682.208,-294.6"/>
</g>
<!-- CitationsTreatments -->
<g id="node4" class="node"><title>CitationsTreatments</title>
<ellipse fill="none" stroke="black" cx="1185" cy="-180" rx="84.2388" ry="18"/>
<text text-anchor="middle" x="1185" y="-176.3" font-family="Times,serif" font-size="14.00">CitationsTreatments</text>
</g>
<!-- Citation&#45;&gt;CitationsTreatments -->
<g id="edge3" class="edge"><title>Citation&#45;&gt;CitationsTreatments</title>
<path fill="none" stroke="#759040" d="M1068.04,-429.301C1073.39,-424.656 1078.68,-419.455 1083,-414 1134.51,-348.969 1165.35,-253.904 1178.12,-207.909"/>
<ellipse fill="none" stroke="#759040" cx="1064.87" cy="-431.929" rx="4.00002" ry="4.00002"/>
<polygon fill="#759040" stroke="#759040" points="1178.16,-207.744 1185.12,-199.266 1179.47,-202.917 1180.77,-198.091 1180.77,-198.091 1180.77,-198.091 1179.47,-202.917 1176.43,-196.916 1178.16,-207.744 1178.16,-207.744"/>
<text text-anchor="middle" x="1199" y="-318.3" font-family="Times,serif" font-size="14.00">citation_treatments</text>
</g>
<!-- Treatment -->
<g id="node37" class="node"><title>Treatment</title>
<ellipse fill="none" stroke="black" cx="1274" cy="-268" rx="48.1437" ry="18"/>
<text text-anchor="middle" x="1274" y="-264.3" font-family="Times,serif" font-size="14.00">Treatment</text>
</g>
<!-- Citation&#45;&gt;Treatment -->
<g id="edge4" class="edge"><title>Citation&#45;&gt;Treatment</title>
<path fill="none" stroke="#e3d0f6" d="M1084.86,-437.59C1104.64,-431.707 1128,-423.714 1148,-414 1188.36,-394.4 1194.46,-382.577 1232,-358 1244.38,-349.897 1251.68,-352.234 1260,-340 1268.67,-327.249 1272.24,-310.408 1273.62,-296.328"/>
<polygon fill="#e3d0f6" stroke="#e3d0f6" points="1084.78,-437.612 1073.92,-436.066 1079.98,-439.001 1075.17,-440.389 1075.17,-440.389 1075.17,-440.389 1079.98,-439.001 1076.42,-444.712 1084.78,-437.612 1084.78,-437.612"/>
<polygon fill="#e3d0f6" stroke="#e3d0f6" points="1273.62,-296.19 1278.77,-286.509 1273.95,-291.201 1274.28,-286.212 1274.28,-286.212 1274.28,-286.212 1273.95,-291.201 1269.79,-285.915 1273.62,-296.19 1273.62,-296.19"/>
</g>
<!-- Management -->
<g id="node21" class="node"><title>Management</title>
<ellipse fill="none" stroke="black" cx="1299" cy="-376" rx="58.2422" ry="18"/>
<text text-anchor="middle" x="1299" y="-372.3" font-family="Times,serif" font-size="14.00">Management</text>
</g>
<!-- Citation&#45;&gt;Management -->
<g id="edge5" class="edge"><title>Citation&#45;&gt;Management</title>
<path fill="none" stroke="#d8e0d6" d="M1082.78,-438.225C1108.78,-431.443 1142.89,-422.411 1173,-414 1198.17,-406.969 1226.06,-398.816 1249.19,-391.956"/>
<ellipse fill="none" stroke="#d8e0d6" cx="1078.85" cy="-439.246" rx="4.00001" ry="4.00001"/>
<polygon fill="#d8e0d6" stroke="#d8e0d6" points="1249.2,-391.952 1260.07,-393.416 1254,-390.527 1258.79,-389.102 1258.79,-389.102 1258.79,-389.102 1254,-390.527 1257.51,-384.789 1249.2,-391.952 1249.2,-391.952"/>
</g>
<!-- Yield -->
<g id="node41" class="node"><title>Yield</title>
<ellipse fill="none" stroke="black" cx="700" cy="-180" rx="31.2965" ry="18"/>
<text text-anchor="middle" x="700" y="-176.3" font-family="Times,serif" font-size="14.00">Yield</text>
</g>
<!-- Citation&#45;&gt;Yield -->
<g id="edge6" class="edge"><title>Citation&#45;&gt;Yield</title>
<path fill="none" stroke="#acedb5" d="M1004.64,-433.887C984.868,-424.438 960.869,-410.858 943,-394 874.666,-329.532 906.517,-269.073 829,-216 795.701,-193.201 778.545,-209.954 740,-198 737.604,-197.257 735.155,-196.42 732.708,-195.526"/>
<ellipse fill="none" stroke="#acedb5" cx="1008.37" cy="-435.618" rx="4.00002" ry="4.00002"/>
<polygon fill="#acedb5" stroke="#acedb5" points="732.704,-195.525 725.035,-187.686 728.049,-193.7 723.393,-191.875 723.393,-191.875 723.393,-191.875 728.049,-193.7 721.751,-196.065 732.704,-195.525 732.704,-195.525"/>
</g>
<!-- Trait -->
<g id="node36" class="node"><title>Trait</title>
<ellipse fill="none" stroke="black" cx="918" cy="-180" rx="28.3955" ry="18"/>
<text text-anchor="middle" x="918" y="-176.3" font-family="Times,serif" font-size="14.00">Trait</text>
</g>
<!-- Citation&#45;&gt;Trait -->
<g id="edge7" class="edge"><title>Citation&#45;&gt;Trait</title>
<path fill="none" stroke="#5934d0" d="M1059.99,-426.478C1066.75,-417.062 1073.54,-405.616 1077,-394 1088.64,-354.957 1070.2,-264.963 1060,-250 1035.86,-214.596 988.254,-196.701 954.839,-188.134"/>
<ellipse fill="none" stroke="#5934d0" cx="1057.53" cy="-429.753" rx="4.00002" ry="4.00002"/>
<polygon fill="#5934d0" stroke="#5934d0" points="954.69,-188.098 946.016,-181.389 949.828,-186.932 944.966,-185.765 944.966,-185.765 944.966,-185.765 949.828,-186.932 943.916,-190.141 954.69,-188.098 954.69,-188.098"/>
</g>
<!-- Prior -->
<g id="node31" class="node"><title>Prior</title>
<ellipse fill="none" stroke="black" cx="566" cy="-18" rx="29.3722" ry="18"/>
<text text-anchor="middle" x="566" y="-14.3" font-family="Times,serif" font-size="14.00">Prior</text>
</g>
<!-- Citation&#45;&gt;Prior -->
<g id="edge8" class="edge"><title>Citation&#45;&gt;Prior</title>
<path fill="none" stroke="#92e888" d="M993.305,-446.224C912.674,-440.704 753.812,-426.013 709,-394 661.654,-360.176 653.486,-341.172 635,-286 604.957,-196.338 655.229,-160.489 617,-74 611.226,-60.9367 601.038,-48.9714 591.278,-39.561"/>
<ellipse fill="none" stroke="#92e888" cx="997.337" cy="-446.493" rx="4" ry="4"/>
<polygon fill="#92e888" stroke="#92e888" points="591.024,-39.3287 586.668,-29.265 587.33,-35.9592 583.635,-32.5896 583.635,-32.5896 583.635,-32.5896 587.33,-35.9592 580.603,-35.9143 591.024,-39.3287 591.024,-39.3287"/>
</g>
<!-- Methods -->
<g id="node23" class="node"><title>Methods</title>
<ellipse fill="none" stroke="black" cx="1009" cy="-268" rx="42.3456" ry="18"/>
<text text-anchor="middle" x="1009" y="-264.3" font-family="Times,serif" font-size="14.00">Methods</text>
</g>
<!-- Citation&#45;&gt;Methods -->
<g id="edge9" class="edge"><title>Citation&#45;&gt;Methods</title>
<path fill="none" stroke="#0ed26a" d="M1022.01,-426.478C1015.25,-417.062 1008.46,-405.616 1005,-394 1000.43,-378.667 1001.68,-373.651 1005,-358 1006.82,-349.436 1011.18,-348.564 1013,-340 1016.32,-324.349 1013.91,-319.974 1013,-304 1012.85,-301.435 1012.65,-298.77 1012.41,-296.107"/>
<ellipse fill="none" stroke="#0ed26a" cx="1024.47" cy="-429.753" rx="4.00002" ry="4.00002"/>
<polygon fill="#0ed26a" stroke="#0ed26a" points="1012.4,-296.001 1015.82,-285.583 1011.87,-291.029 1011.34,-286.056 1011.34,-286.056 1011.34,-286.056 1011.87,-291.029 1006.87,-286.53 1012.4,-296.001 1012.4,-296.001"/>
<text text-anchor="middle" x="1041" y="-372.3" font-family="Times,serif" font-size="14.00">ebi_methods</text>
</g>
<!-- County -->
<g id="node5" class="node"><title>County</title>
<ellipse fill="none" stroke="black" cx="1779" cy="-545" rx="37.5442" ry="18"/>
<text text-anchor="middle" x="1779" y="-541.3" font-family="Times,serif" font-size="14.00">County</text>
</g>
<!-- CountyBoundary -->
<g id="node6" class="node"><title>CountyBoundary</title>
<ellipse fill="none" stroke="black" cx="1634" cy="-450" rx="73.1654" ry="18"/>
<text text-anchor="middle" x="1634" y="-446.3" font-family="Times,serif" font-size="14.00">CountyBoundary</text>
</g>
<!-- County&#45;&gt;CountyBoundary -->
<g id="edge10" class="edge"><title>County&#45;&gt;CountyBoundary</title>
<path fill="none" stroke="#ed3fea" d="M1750.5,-525.718C1726.75,-510.485 1692.86,-488.754 1667.76,-472.652"/>
<ellipse fill="none" stroke="#ed3fea" cx="1753.93" cy="-527.917" rx="4.00002" ry="4.00002"/>
<polygon fill="#ed3fea" stroke="#ed3fea" points="1667.69,-472.61 1661.7,-463.423 1663.48,-469.91 1659.28,-467.211 1659.28,-467.211 1659.28,-467.211 1663.48,-469.91 1656.85,-470.999 1667.69,-472.61 1667.69,-472.61"/>
</g>
<!-- CountyPath -->
<g id="node7" class="node"><title>CountyPath</title>
<ellipse fill="none" stroke="black" cx="1779" cy="-450" rx="53.4184" ry="18"/>
<text text-anchor="middle" x="1779" y="-446.3" font-family="Times,serif" font-size="14.00">CountyPath</text>
</g>
<!-- County&#45;&gt;CountyPath -->
<g id="edge11" class="edge"><title>County&#45;&gt;CountyPath</title>
<path fill="none" stroke="#dd5212" d="M1779,-518.562C1779,-506.078 1779,-491.025 1779,-478.299"/>
<ellipse fill="none" stroke="#dd5212" cx="1779" cy="-522.942" rx="4" ry="4"/>
<polygon fill="#dd5212" stroke="#dd5212" points="1779,-478.264 1783.5,-468.264 1779,-473.264 1779,-468.264 1779,-468.264 1779,-468.264 1779,-473.264 1774.5,-468.264 1779,-478.264 1779,-478.264"/>
</g>
<!-- LocationYield -->
<g id="node19" class="node"><title>LocationYield</title>
<ellipse fill="none" stroke="black" cx="1914" cy="-450" rx="63.0666" ry="18"/>
<text text-anchor="middle" x="1914" y="-446.3" font-family="Times,serif" font-size="14.00">LocationYield</text>
</g>
<!-- County&#45;&gt;LocationYield -->
<g id="edge12" class="edge"><title>County&#45;&gt;LocationYield</title>
<path fill="none" stroke="#e6f89f" d="M1802.87,-523.77C1810.16,-517.854 1818.28,-511.502 1826,-506 1842.83,-494 1862.26,-481.708 1878.57,-471.795"/>
<ellipse fill="none" stroke="#e6f89f" cx="1799.55" cy="-526.503" rx="4.00002" ry="4.00002"/>
<polygon fill="#e6f89f" stroke="#e6f89f" points="1878.71,-471.712 1889.59,-470.405 1882.99,-469.131 1887.27,-466.551 1887.27,-466.551 1887.27,-466.551 1882.99,-469.131 1884.95,-462.696 1878.71,-471.712 1878.71,-471.712"/>
</g>
<!-- Covariate -->
<g id="node8" class="node"><title>Covariate</title>
<ellipse fill="none" stroke="black" cx="727" cy="-18" rx="46.2191" ry="18"/>
<text text-anchor="middle" x="727" y="-14.3" font-family="Times,serif" font-size="14.00">Covariate</text>
</g>
<!-- Cultivar -->
<g id="node9" class="node"><title>Cultivar</title>
<ellipse fill="none" stroke="black" cx="794" cy="-268" rx="39.9464" ry="18"/>
<text text-anchor="middle" x="794" y="-264.3" font-family="Times,serif" font-size="14.00">Cultivar</text>
</g>
<!-- Cultivar&#45;&gt;Trait -->
<g id="edge13" class="edge"><title>Cultivar&#45;&gt;Trait</title>
<path fill="none" stroke="#b3d758" d="M834.799,-255.164C849.637,-249.629 865.952,-242.008 879,-232 888.383,-224.803 896.688,-214.812 903.196,-205.579"/>
<ellipse fill="none" stroke="#b3d758" cx="830.968" cy="-256.529" rx="4.00001" ry="4.00001"/>
<polygon fill="#b3d758" stroke="#b3d758" points="903.317,-205.397 912.606,-199.57 906.089,-201.236 908.861,-197.075 908.861,-197.075 908.861,-197.075 906.089,-201.236 905.116,-194.58 903.317,-205.397 903.317,-205.397"/>
</g>
<!-- Cultivar&#45;&gt;Yield -->
<g id="edge14" class="edge"><title>Cultivar&#45;&gt;Yield</title>
<path fill="none" stroke="#6a94ba" d="M760.396,-250.457C751.591,-245.247 742.478,-239 735,-232 727.087,-224.593 719.972,-215.098 714.257,-206.314"/>
<ellipse fill="none" stroke="#6a94ba" cx="763.876" cy="-252.433" rx="4.00002" ry="4.00002"/>
<polygon fill="#6a94ba" stroke="#6a94ba" points="714.089,-206.041 712.662,-195.168 711.461,-201.787 708.833,-197.534 708.833,-197.534 708.833,-197.534 711.461,-201.787 705.005,-199.899 714.089,-206.041 714.089,-206.041"/>
</g>
<!-- Ensemble -->
<g id="node10" class="node"><title>Ensemble</title>
<ellipse fill="none" stroke="black" cx="235" cy="-180" rx="46.1964" ry="18"/>
<text text-anchor="middle" x="235" y="-176.3" font-family="Times,serif" font-size="14.00">Ensemble</text>
</g>
<!-- Run -->
<g id="node32" class="node"><title>Run</title>
<ellipse fill="none" stroke="black" cx="235" cy="-92" rx="27" ry="18"/>
<text text-anchor="middle" x="235" y="-88.3" font-family="Times,serif" font-size="14.00">Run</text>
</g>
<!-- Ensemble&#45;&gt;Run -->
<g id="edge15" class="edge"><title>Ensemble&#45;&gt;Run</title>
<path fill="none" stroke="#254b0d" d="M235,-153.339C235,-142.855 235,-130.718 235,-120.091"/>
<ellipse fill="none" stroke="#254b0d" cx="235" cy="-157.597" rx="4" ry="4"/>
<polygon fill="#254b0d" stroke="#254b0d" points="235,-120.084 239.5,-110.084 235,-115.084 235,-110.084 235,-110.084 235,-110.084 235,-115.084 230.5,-110.084 235,-120.084 235,-120.084"/>
</g>
<!-- Entity -->
<g id="node11" class="node"><title>Entity</title>
<ellipse fill="none" stroke="black" cx="1868" cy="-545" rx="33.2209" ry="18"/>
<text text-anchor="middle" x="1868" y="-541.3" font-family="Times,serif" font-size="14.00">Entity</text>
</g>
<!-- Entity&#45;&gt;Entity -->
<g id="edge16" class="edge"><title>Entity&#45;&gt;Entity</title>
<path fill="none" stroke="#9685bf" d="M1902.89,-555.773C1912.06,-555.14 1919,-551.549 1919,-545 1919,-538.909 1913,-535.377 1904.78,-534.403"/>
<ellipse fill="none" stroke="#9685bf" cx="1898.76" cy="-555.69" rx="4" ry="4"/>
<polygon fill="#9685bf" stroke="#9685bf" points="1904.76,-534.403 1894.77,-529.891 1899.76,-534.397 1894.76,-534.391 1894.76,-534.391 1894.76,-534.391 1899.76,-534.397 1894.76,-538.89 1904.76,-534.403 1904.76,-534.403"/>
<text text-anchor="middle" x="1942" y="-541.3" font-family="Times,serif" font-size="14.00">children</text>
</g>
<!-- Error -->
<g id="node12" class="node"><title>Error</title>
<ellipse fill="none" stroke="black" cx="2013" cy="-545" rx="29.3479" ry="18"/>
<text text-anchor="middle" x="2013" y="-541.3" font-family="Times,serif" font-size="14.00">Error</text>
</g>
<!-- Format -->
<g id="node13" class="node"><title>Format</title>
<ellipse fill="none" stroke="black" cx="444" cy="-268" rx="37.0701" ry="18"/>
<text text-anchor="middle" x="444" y="-264.3" font-family="Times,serif" font-size="14.00">Format</text>
</g>
<!-- Input -->
<g id="node15" class="node"><title>Input</title>
<ellipse fill="none" stroke="black" cx="444" cy="-180" rx="29.3479" ry="18"/>
<text text-anchor="middle" x="444" y="-176.3" font-family="Times,serif" font-size="14.00">Input</text>
</g>
<!-- Format&#45;&gt;Input -->
<g id="edge17" class="edge"><title>Format&#45;&gt;Input</title>
<path fill="none" stroke="#45b125" d="M444,-241.339C444,-230.855 444,-218.718 444,-208.091"/>
<ellipse fill="none" stroke="#45b125" cx="444" cy="-245.597" rx="4" ry="4"/>
<polygon fill="#45b125" stroke="#45b125" points="444,-208.084 448.5,-198.084 444,-203.084 444,-198.084 444,-198.084 444,-198.084 444,-203.084 439.5,-198.084 444,-208.084 444,-208.084"/>
</g>
<!-- FormatsVariable -->
<g id="node14" class="node"><title>FormatsVariable</title>
<ellipse fill="none" stroke="black" cx="377" cy="-18" rx="72.2155" ry="18"/>
<text text-anchor="middle" x="377" y="-14.3" font-family="Times,serif" font-size="14.00">FormatsVariable</text>
</g>
<!-- Format&#45;&gt;FormatsVariable -->
<g id="edge18" class="edge"><title>Format&#45;&gt;FormatsVariable</title>
<path fill="none" stroke="#017d41" d="M428.457,-243.929C420.359,-230.937 410.935,-214.126 405,-198 386.048,-146.504 379.923,-82.0677 377.944,-46.2418"/>
<ellipse fill="none" stroke="#017d41" cx="430.639" cy="-247.352" rx="4.00002" ry="4.00002"/>
<polygon fill="#017d41" stroke="#017d41" points="377.936,-46.0762 381.948,-35.8706 377.695,-41.0821 377.454,-36.0879 377.454,-36.0879 377.454,-36.0879 377.695,-41.0821 372.959,-36.3051 377.936,-46.0762 377.936,-46.0762"/>
</g>
<!-- Variable -->
<g id="node39" class="node"><title>Variable</title>
<ellipse fill="none" stroke="black" cx="566" cy="-92" rx="42.3701" ry="18"/>
<text text-anchor="middle" x="566" y="-88.3" font-family="Times,serif" font-size="14.00">Variable</text>
</g>
<!-- Format&#45;&gt;Variable -->
<g id="edge19" class="edge"><title>Format&#45;&gt;Variable</title>
<path fill="none" stroke="#c4b59e" d="M480.747,-251.196C503.091,-239.68 530.264,-221.908 546,-198 561.256,-174.822 565.513,-142.897 566.416,-120.351"/>
<polygon fill="#c4b59e" stroke="#c4b59e" points="480.484,-251.326 469.525,-251.712 475.999,-253.537 471.515,-255.748 471.515,-255.748 471.515,-255.748 475.999,-253.537 473.504,-259.784 480.484,-251.326 480.484,-251.326"/>
<polygon fill="#c4b59e" stroke="#c4b59e" points="566.421,-120.114 571.122,-110.207 566.522,-115.115 566.623,-110.116 566.623,-110.116 566.623,-110.116 566.522,-115.115 562.124,-110.025 566.421,-120.114 566.421,-120.114"/>
</g>
<!-- Input&#45;&gt;Run -->
<g id="edge20" class="edge"><title>Input&#45;&gt;Run</title>
<path fill="none" stroke="#48dac0" d="M410.574,-165.246C370.98,-148.954 305.512,-122.015 266.692,-106.041"/>
<polygon fill="#48dac0" stroke="#48dac0" points="410.777,-165.329 418.313,-173.296 415.401,-167.232 420.025,-169.135 420.025,-169.135 420.025,-169.135 415.401,-167.232 421.737,-164.973 410.777,-165.329 410.777,-165.329"/>
<polygon fill="#48dac0" stroke="#48dac0" points="266.676,-106.034 259.141,-98.0675 262.052,-104.132 257.429,-102.229 257.429,-102.229 257.429,-102.229 262.052,-104.132 255.716,-106.39 266.676,-106.034 266.676,-106.034"/>
</g>
<!-- Input&#45;&gt;Variable -->
<g id="edge21" class="edge"><title>Input&#45;&gt;Variable</title>
<path fill="none" stroke="#0273f1" d="M470.874,-160.056C490.26,-146.391 516.426,-127.945 536.409,-113.859"/>
<polygon fill="#0273f1" stroke="#0273f1" points="470.703,-160.177 459.936,-162.26 466.616,-163.058 462.529,-165.938 462.529,-165.938 462.529,-165.938 466.616,-163.058 465.122,-169.616 470.703,-160.177 470.703,-160.177"/>
<polygon fill="#0273f1" stroke="#0273f1" points="536.659,-113.683 547.425,-111.6 540.745,-110.803 544.832,-107.922 544.832,-107.922 544.832,-107.922 540.745,-110.803 542.239,-104.244 536.659,-113.683 536.659,-113.683"/>
</g>
<!-- Likelihood -->
<g id="node18" class="node"><title>Likelihood</title>
<ellipse fill="none" stroke="black" cx="236" cy="-18" rx="50.5427" ry="18"/>
<text text-anchor="middle" x="236" y="-14.3" font-family="Times,serif" font-size="14.00">Likelihood</text>
</g>
<!-- Input&#45;&gt;Likelihood -->
<g id="edge22" class="edge"><title>Input&#45;&gt;Likelihood</title>
<path fill="none" stroke="#c2725a" d="M419.768,-160.36C381.09,-130.608 305.579,-72.5226 264.416,-40.8585"/>
<ellipse fill="none" stroke="#c2725a" cx="423.096" cy="-162.92" rx="4.00002" ry="4.00002"/>
<polygon fill="#c2725a" stroke="#c2725a" points="264.347,-40.8054 259.164,-31.1414 260.384,-37.7568 256.421,-34.7083 256.421,-34.7083 256.421,-34.7083 260.384,-37.7568 253.677,-38.2751 264.347,-40.8054 264.347,-40.8054"/>
</g>
<!-- DBFile -->
<g id="node43" class="node"><title>DBFile</title>
<ellipse fill="none" stroke="black" cx="468" cy="-92" rx="37.5442" ry="18"/>
<text text-anchor="middle" x="468" y="-88.3" font-family="Times,serif" font-size="14.00">DBFile</text>
</g>
<!-- Input&#45;&gt;DBFile -->
<g id="edge23" class="edge"><title>Input&#45;&gt;DBFile</title>
<path fill="none" stroke="#a9441e" d="M450.95,-154.097C453.946,-143.359 457.457,-130.779 460.511,-119.834"/>
<ellipse fill="none" stroke="#a9441e" cx="449.817" cy="-158.156" rx="4.00001" ry="4.00001"/>
<polygon fill="#a9441e" stroke="#a9441e" points="460.58,-119.588 467.603,-111.165 461.924,-114.772 463.268,-109.956 463.268,-109.956 463.268,-109.956 461.924,-114.772 458.934,-108.746 460.58,-119.588 460.58,-119.588"/>
<text text-anchor="middle" x="471" y="-132.3" font-family="Times,serif" font-size="14.00">files</text>
</g>
<!-- Input&#45;&gt;Input -->
<g id="edge24" class="edge"><title>Input&#45;&gt;Input</title>
<path fill="none" stroke="#c1e1a4" d="M478.883,-187.931C485.946,-187.061 491,-184.418 491,-180 491,-175.958 486.77,-173.402 480.641,-172.33"/>
<ellipse fill="none" stroke="#c1e1a4" cx="474.573" cy="-188.059" rx="4" ry="4"/>
<polygon fill="#c1e1a4" stroke="#c1e1a4" points="480.562,-172.326 470.801,-167.328 475.568,-172.074 470.574,-171.823 470.574,-171.823 470.574,-171.823 475.568,-172.074 470.348,-176.317 480.562,-172.326 480.562,-172.326"/>
<text text-anchor="middle" x="514" y="-176.3" font-family="Times,serif" font-size="14.00">children</text>
</g>
<!-- InputsRuns -->
<g id="node16" class="node"><title>InputsRuns</title>
<ellipse fill="none" stroke="black" cx="2113" cy="-545" rx="51.4931" ry="18"/>
<text text-anchor="middle" x="2113" y="-541.3" font-family="Times,serif" font-size="14.00">InputsRuns</text>
</g>
<!-- InputsVariables -->
<g id="node17" class="node"><title>InputsVariables</title>
<ellipse fill="none" stroke="black" cx="2251" cy="-545" rx="68.3664" ry="18"/>
<text text-anchor="middle" x="2251" y="-541.3" font-family="Times,serif" font-size="14.00">InputsVariables</text>
</g>
<!-- Machine -->
<g id="node20" class="node"><title>Machine</title>
<ellipse fill="none" stroke="black" cx="2379" cy="-545" rx="42.3701" ry="18"/>
<text text-anchor="middle" x="2379" y="-541.3" font-family="Times,serif" font-size="14.00">Machine</text>
</g>
<!-- BetyFile -->
<g id="node44" class="node"><title>BetyFile</title>
<ellipse fill="none" stroke="black" cx="2379" cy="-450" rx="42.3701" ry="18"/>
<text text-anchor="middle" x="2379" y="-446.3" font-family="Times,serif" font-size="14.00">BetyFile</text>
</g>
<!-- Machine&#45;&gt;BetyFile -->
<g id="edge25" class="edge"><title>Machine&#45;&gt;BetyFile</title>
<path fill="none" stroke="#d5ea49" d="M2379,-518.562C2379,-506.078 2379,-491.025 2379,-478.299"/>
<ellipse fill="none" stroke="#d5ea49" cx="2379" cy="-522.942" rx="4" ry="4"/>
<polygon fill="#d5ea49" stroke="#d5ea49" points="2379,-478.264 2383.5,-468.264 2379,-473.264 2379,-468.264 2379,-468.264 2379,-468.264 2379,-473.264 2374.5,-468.264 2379,-478.264 2379,-478.264"/>
</g>
<!-- ManagementsTreatments -->
<g id="node22" class="node"><title>ManagementsTreatments</title>
<ellipse fill="none" stroke="black" cx="1463" cy="-180" rx="102.536" ry="18"/>
<text text-anchor="middle" x="1463" y="-176.3" font-family="Times,serif" font-size="14.00">ManagementsTreatments</text>
</g>
<!-- Management&#45;&gt;ManagementsTreatments -->
<g id="edge26" class="edge"><title>Management&#45;&gt;ManagementsTreatments</title>
<path fill="none" stroke="#15edbf" d="M1340.97,-358.231C1388.09,-336.843 1462.12,-294.917 1494,-232 1498.43,-223.266 1495.36,-214.03 1489.73,-205.854"/>
<ellipse fill="none" stroke="#15edbf" cx="1337.31" cy="-359.862" rx="4.00002" ry="4.00002"/>
<polygon fill="#15edbf" stroke="#15edbf" points="1489.73,-205.853 1486.92,-195.253 1486.58,-201.971 1483.43,-198.088 1483.43,-198.088 1483.43,-198.088 1486.58,-201.971 1479.93,-200.924 1489.73,-205.853 1489.73,-205.853"/>
<text text-anchor="middle" x="1555.5" y="-264.3" font-family="Times,serif" font-size="14.00">managements_treatments</text>
</g>
<!-- Management&#45;&gt;Treatment -->
<g id="edge27" class="edge"><title>Management&#45;&gt;Treatment</title>
<path fill="none" stroke="#b7092f" d="M1294.4,-347.993C1291.94,-334.672 1288.67,-318.41 1285,-304 1284.32,-301.315 1283.55,-298.532 1282.74,-295.762"/>
<polygon fill="#b7092f" stroke="#b7092f" points="1294.42,-348.112 1291.75,-358.749 1295.3,-353.033 1296.18,-357.955 1296.18,-357.955 1296.18,-357.955 1295.3,-353.033 1300.61,-357.161 1294.42,-348.112 1294.42,-348.112"/>
<polygon fill="#b7092f" stroke="#b7092f" points="1282.67,-295.545 1284.05,-284.666 1281.21,-290.764 1279.75,-285.982 1279.75,-285.982 1279.75,-285.982 1281.21,-290.764 1275.45,-287.298 1282.67,-295.545 1282.67,-295.545"/>
</g>
<!-- Methods&#45;&gt;Trait -->
<g id="edge28" class="edge"><title>Methods&#45;&gt;Trait</title>
<path fill="none" stroke="#e615e9" d="M999.573,-242.436C995.222,-233.355 989.366,-223.466 982,-216 973.264,-207.145 961.809,-199.932 951.009,-194.405"/>
<ellipse fill="none" stroke="#e615e9" cx="1001.24" cy="-246.152" rx="4.00002" ry="4.00002"/>
<polygon fill="#e615e9" stroke="#e615e9" points="950.791,-194.301 943.713,-185.924 946.281,-192.142 941.771,-189.983 941.771,-189.983 941.771,-189.983 946.281,-192.142 939.828,-194.042 950.791,-194.301 950.791,-194.301"/>
</g>
<!-- Methods&#45;&gt;Yield -->
<g id="edge29" class="edge"><title>Methods&#45;&gt;Yield</title>
<path fill="none" stroke="#3fe831" d="M971.059,-252.251C940.627,-240.915 896.604,-225.616 857,-216 805.874,-203.587 790.602,-212.401 740,-198 737.673,-197.338 735.302,-196.575 732.933,-195.747"/>
<ellipse fill="none" stroke="#3fe831" cx="975.135" cy="-253.782" rx="4.00001" ry="4.00001"/>
<polygon fill="#3fe831" stroke="#3fe831" points="732.674,-195.647 724.948,-187.865 728.005,-193.857 723.336,-192.067 723.336,-192.067 723.336,-192.067 728.005,-193.857 721.725,-196.268 732.674,-195.647 732.674,-195.647"/>
</g>
<!-- Mimetype -->
<g id="node24" class="node"><title>Mimetype</title>
<ellipse fill="none" stroke="black" cx="2487" cy="-545" rx="48.1437" ry="18"/>
<text text-anchor="middle" x="2487" y="-541.3" font-family="Times,serif" font-size="14.00">Mimetype</text>
</g>
<!-- Model -->
<g id="node25" class="node"><title>Model</title>
<ellipse fill="none" stroke="black" cx="34" cy="-180" rx="34.1708" ry="18"/>
<text text-anchor="middle" x="34" y="-176.3" font-family="Times,serif" font-size="14.00">Model</text>
</g>
<!-- Model&#45;&gt;Run -->
<g id="edge30" class="edge"><title>Model&#45;&gt;Run</title>
<path fill="none" stroke="#9da458" d="M66.266,-163.763C88.5361,-153.381 118.902,-139.488 146,-128 164.529,-120.145 185.464,-111.882 202.373,-105.358"/>
<ellipse fill="none" stroke="#9da458" cx="62.3685" cy="-165.585" rx="4.00002" ry="4.00002"/>
<polygon fill="#9da458" stroke="#9da458" points="202.478,-105.317 213.427,-105.935 207.146,-103.526 211.814,-101.734 211.814,-101.734 211.814,-101.734 207.146,-103.526 210.202,-97.5329 202.478,-105.317 202.478,-105.317"/>
</g>
<!-- Model&#45;&gt;Model -->
<g id="edge31" class="edge"><title>Model&#45;&gt;Model</title>
<path fill="none" stroke="#ca1f77" d="M72.9488,-187.89C80.5772,-186.98 86,-184.351 86,-180 86,-176.012 81.4434,-173.47 74.8081,-172.373"/>
<ellipse fill="none" stroke="#ca1f77" cx="68.701" cy="-188.063" rx="4" ry="4"/>
<polygon fill="#ca1f77" stroke="#ca1f77" points="74.6868,-172.366 64.9705,-167.283 69.6955,-172.071 64.7043,-171.775 64.7043,-171.775 64.7043,-171.775 69.6955,-172.071 64.438,-176.267 74.6868,-172.366 74.6868,-172.366"/>
<text text-anchor="middle" x="109" y="-176.3" font-family="Times,serif" font-size="14.00">children</text>
</g>
<!-- Pft -->
<g id="node26" class="node"><title>Pft</title>
<ellipse fill="none" stroke="black" cx="298" cy="-450" rx="27" ry="18"/>
<text text-anchor="middle" x="298" y="-446.3" font-family="Times,serif" font-size="14.00">Pft</text>
</g>
<!-- Pft&#45;&gt;Prior -->
<g id="edge32" class="edge"><title>Pft&#45;&gt;Prior</title>
<path fill="none" stroke="#65a025" d="M299.203,-421.514C303.64,-353.423 324.379,-175.13 421,-74 449.279,-44.4014 495.115,-30.5604 527.678,-24.2002"/>
<polygon fill="#65a025" stroke="#65a025" points="299.183,-421.846 294.11,-431.568 298.893,-426.837 298.603,-431.829 298.603,-431.829 298.603,-431.829 298.893,-426.837 303.095,-432.09 299.183,-421.846 299.183,-421.846"/>
<polygon fill="#65a025" stroke="#65a025" points="527.903,-24.1597 538.542,-26.8163 532.824,-23.2736 537.745,-22.3875 537.745,-22.3875 537.745,-22.3875 532.824,-23.2736 536.947,-17.9587 527.903,-24.1597 527.903,-24.1597"/>
</g>
<!-- Specie -->
<g id="node35" class="node"><title>Specie</title>
<ellipse fill="none" stroke="black" cx="777" cy="-376" rx="35.1455" ry="18"/>
<text text-anchor="middle" x="777" y="-372.3" font-family="Times,serif" font-size="14.00">Specie</text>
</g>
<!-- Pft&#45;&gt;Specie -->
<g id="edge33" class="edge"><title>Pft&#45;&gt;Specie</title>
<path fill="none" stroke="#c3084f" d="M334.082,-443.576C420.738,-430.551 640.324,-397.544 733.802,-383.493"/>
<polygon fill="#c3084f" stroke="#c3084f" points="333.982,-443.591 323.424,-440.628 329.038,-444.335 324.093,-445.078 324.093,-445.078 324.093,-445.078 329.038,-444.335 324.762,-449.528 333.982,-443.591 333.982,-443.591"/>
<polygon fill="#c3084f" stroke="#c3084f" points="733.88,-383.482 744.438,-386.445 738.825,-382.738 743.769,-381.995 743.769,-381.995 743.769,-381.995 738.825,-382.738 743.1,-377.545 733.88,-383.482 733.88,-383.482"/>
</g>
<!-- Posterior -->
<g id="node29" class="node"><title>Posterior</title>
<ellipse fill="none" stroke="black" cx="168" cy="-322" rx="43.319" ry="18"/>
<text text-anchor="middle" x="168" y="-318.3" font-family="Times,serif" font-size="14.00">Posterior</text>
</g>
<!-- Pft&#45;&gt;Posterior -->
<g id="edge34" class="edge"><title>Pft&#45;&gt;Posterior</title>
<path fill="none" stroke="#c9f1b9" d="M277.515,-429.145C254.288,-406.633 216.469,-369.978 191.912,-346.176"/>
<ellipse fill="none" stroke="#c9f1b9" cx="280.468" cy="-432.007" rx="4.00002" ry="4.00002"/>
<polygon fill="#c9f1b9" stroke="#c9f1b9" points="191.621,-345.894 187.572,-335.703 188.03,-342.414 184.44,-338.934 184.44,-338.934 184.44,-338.934 188.03,-342.414 181.308,-342.165 191.621,-345.894 191.621,-345.894"/>
</g>
<!-- PftsPriors -->
<g id="node27" class="node"><title>PftsPriors</title>
<ellipse fill="none" stroke="black" cx="2600" cy="-545" rx="46.1964" ry="18"/>
<text text-anchor="middle" x="2600" y="-541.3" font-family="Times,serif" font-size="14.00">PftsPriors</text>
</g>
<!-- PftsSpecies -->
<g id="node28" class="node"><title>PftsSpecies</title>
<ellipse fill="none" stroke="black" cx="2717" cy="-545" rx="52.4675" ry="18"/>
<text text-anchor="middle" x="2717" y="-541.3" font-family="Times,serif" font-size="14.00">PftsSpecies</text>
</g>
<!-- Posterior&#45;&gt;Run -->
<g id="edge35" class="edge"><title>Posterior&#45;&gt;Run</title>
<path fill="none" stroke="#9844cf" d="M165.003,-293.411C162.551,-260.802 161.863,-205.482 179,-162 186.167,-143.814 199.958,-126.727 212.06,-114.107"/>
<polygon fill="#9844cf" stroke="#9844cf" points="165.018,-293.586 161.395,-303.936 165.448,-298.567 165.879,-303.548 165.879,-303.548 165.879,-303.548 165.448,-298.567 170.362,-303.161 165.018,-293.586 165.018,-293.586"/>
<polygon fill="#9844cf" stroke="#9844cf" points="212.235,-113.931 222.486,-110.036 215.769,-110.394 219.302,-106.856 219.302,-106.856 219.302,-106.856 215.769,-110.394 216.118,-103.676 212.235,-113.931 212.235,-113.931"/>
</g>
<!-- Posterior&#45;&gt;Posterior -->
<g id="edge36" class="edge"><title>Posterior&#45;&gt;Posterior</title>
<path fill="none" stroke="#dbd580" d="M212.271,-331.84C221.959,-330.897 229,-327.617 229,-322 229,-316.772 222.901,-313.568 214.246,-312.39"/>
<ellipse fill="none" stroke="#dbd580" cx="208.017" cy="-331.971" rx="4" ry="4"/>
<polygon fill="#dbd580" stroke="#dbd580" points="214.007,-312.378 204.231,-307.41 209.013,-312.142 204.018,-311.905 204.018,-311.905 204.018,-311.905 209.013,-312.142 203.806,-316.4 214.007,-312.378 214.007,-312.378"/>
<text text-anchor="middle" x="252" y="-318.3" font-family="Times,serif" font-size="14.00">children</text>
</g>
<!-- PosteriorsRuns -->
<g id="node30" class="node"><title>PosteriorsRuns</title>
<ellipse fill="none" stroke="black" cx="2853" cy="-545" rx="65.4659" ry="18"/>
<text text-anchor="middle" x="2853" y="-541.3" font-family="Times,serif" font-size="14.00">PosteriorsRuns</text>
</g>
<!-- Run&#45;&gt;Likelihood -->
<g id="edge37" class="edge"><title>Run&#45;&gt;Likelihood</title>
<path fill="none" stroke="#c3df92" d="M235.35,-65.7923C235.436,-59.5805 235.529,-52.8963 235.617,-46.5786"/>
<ellipse fill="none" stroke="#c3df92" cx="235.293" cy="-69.9374" rx="4" ry="4"/>
<polygon fill="#c3df92" stroke="#c3df92" points="235.619,-46.4397 240.257,-36.5032 235.688,-41.4402 235.758,-36.4407 235.758,-36.4407 235.758,-36.4407 235.688,-41.4402 231.258,-36.3781 235.619,-46.4397 235.619,-46.4397"/>
</g>
<!-- Service -->
<g id="node33" class="node"><title>Service</title>
<ellipse fill="none" stroke="black" cx="2974" cy="-545" rx="37.5442" ry="18"/>
<text text-anchor="middle" x="2974" y="-541.3" font-family="Times,serif" font-size="14.00">Service</text>
</g>
<!-- Site&#45;&gt;CitationsSites -->
<g id="edge38" class="edge"><title>Site&#45;&gt;CitationsSites</title>
<path fill="none" stroke="#edec64" d="M697.066,-250.873C719.387,-237.063 751.684,-217.081 776.027,-202.019"/>
<ellipse fill="none" stroke="#edec64" cx="693.437" cy="-253.118" rx="4.00002" ry="4.00002"/>
<polygon fill="#edec64" stroke="#edec64" points="776.099,-201.975 786.97,-200.54 780.351,-199.344 784.603,-196.714 784.603,-196.714 784.603,-196.714 780.351,-199.344 782.235,-192.887 776.099,-201.975 776.099,-201.975"/>
<text text-anchor="middle" x="790" y="-220.3" font-family="Times,serif" font-size="14.00">citation_sites</text>
</g>
<!-- Site&#45;&gt;Yield -->
<g id="edge39" class="edge"><title>Site&#45;&gt;Yield</title>
<path fill="none" stroke="#cd3625" d="M677.161,-241.887C679.394,-233.572 682.09,-224.32 685,-216 686.036,-213.038 687.203,-209.971 688.418,-206.94"/>
<ellipse fill="none" stroke="#cd3625" cx="676.1" cy="-245.95" rx="4.00001" ry="4.00001"/>
<polygon fill="#cd3625" stroke="#cd3625" points="688.488,-206.773 696.505,-199.292 690.422,-202.162 692.355,-197.551 692.355,-197.551 692.355,-197.551 690.422,-202.162 688.206,-195.811 688.488,-206.773 688.488,-206.773"/>
</g>
<!-- Site&#45;&gt;Trait -->
<g id="edge40" class="edge"><title>Site&#45;&gt;Trait</title>
<path fill="none" stroke="#fa70d1" d="M704.056,-259.261C716.835,-256.307 731.586,-252.944 745,-250 783.142,-241.628 794.568,-246.058 831,-232 852.362,-223.757 874.603,-210.626 891.25,-199.752"/>
<ellipse fill="none" stroke="#fa70d1" cx="699.874" cy="-260.231" rx="4.00001" ry="4.00001"/>
<polygon fill="#fa70d1" stroke="#fa70d1" points="891.565,-199.542 902.381,-197.732 895.724,-196.766 899.882,-193.989 899.882,-193.989 899.882,-193.989 895.724,-196.766 897.383,-190.247 891.565,-199.542 891.565,-199.542"/>
</g>
<!-- Site&#45;&gt;Run -->
<g id="edge41" class="edge"><title>Site&#45;&gt;Run</title>
<path fill="none" stroke="#c4d2c2" d="M638.416,-258.75C610.647,-251.701 569.684,-241.261 534,-232 476.61,-217.106 459.575,-221.173 405,-198 362.413,-179.917 355.355,-168.327 316,-144 298.157,-132.971 278.217,-120.419 262.586,-110.527"/>
<ellipse fill="none" stroke="#c4d2c2" cx="642.359" cy="-259.75" rx="4.00001" ry="4.00001"/>
<polygon fill="#c4d2c2" stroke="#c4d2c2" points="262.377,-110.394 256.338,-101.241 258.153,-107.718 253.929,-105.042 253.929,-105.042 253.929,-105.042 258.153,-107.718 251.521,-108.844 262.377,-110.394 262.377,-110.394"/>
</g>
<!-- Site&#45;&gt;Input -->
<g id="edge42" class="edge"><title>Site&#45;&gt;Input</title>
<path fill="none" stroke="#aceba6" d="M640.494,-255.443C598.171,-239.409 521.89,-210.509 477.855,-193.826"/>
<ellipse fill="none" stroke="#aceba6" cx="644.244" cy="-256.863" rx="4.00001" ry="4.00001"/>
<polygon fill="#aceba6" stroke="#aceba6" points="477.798,-193.804 470.041,-186.053 473.122,-192.033 468.446,-190.262 468.446,-190.262 468.446,-190.262 473.122,-192.033 466.852,-194.47 477.798,-193.804 477.798,-193.804"/>
</g>
<!-- Specie&#45;&gt;Yield -->
<g id="edge43" class="edge"><title>Specie&#45;&gt;Yield</title>
<path fill="none" stroke="#fee52d" d="M766.632,-350.958C754.536,-322.665 734.136,-274.189 718,-232 714.981,-224.107 711.86,-215.46 709.082,-207.566"/>
<ellipse fill="none" stroke="#fee52d" cx="768.238" cy="-354.704" rx="4.00002" ry="4.00002"/>
<polygon fill="#fee52d" stroke="#fee52d" points="709.068,-207.525 710.03,-196.601 707.424,-202.803 705.78,-198.081 705.78,-198.081 705.78,-198.081 707.424,-202.803 701.53,-199.561 709.068,-207.525 709.068,-207.525"/>
</g>
<!-- Specie&#45;&gt;Trait -->
<g id="edge44" class="edge"><title>Specie&#45;&gt;Trait</title>
<path fill="none" stroke="#45e8cd" d="M800.037,-354.467C827.876,-328.496 874.406,-281.196 902,-232 906.149,-224.602 909.376,-215.985 911.809,-207.963"/>
<ellipse fill="none" stroke="#45e8cd" cx="796.997" cy="-357.273" rx="4.00002" ry="4.00002"/>
<polygon fill="#45e8cd" stroke="#45e8cd" points="911.826,-207.898 918.815,-199.448 913.151,-203.077 914.476,-198.256 914.476,-198.256 914.476,-198.256 913.151,-203.077 910.137,-197.063 911.826,-207.898 911.826,-207.898"/>
</g>
<!-- Specie&#45;&gt;Cultivar -->
<g id="edge45" class="edge"><title>Specie&#45;&gt;Cultivar</title>
<path fill="none" stroke="#351ebe" d="M781.008,-350.008C783.604,-333.823 786.984,-312.748 789.645,-296.152"/>
<ellipse fill="none" stroke="#351ebe" cx="780.365" cy="-354.02" rx="4.00001" ry="4.00001"/>
<polygon fill="#351ebe" stroke="#351ebe" points="789.692,-295.862 795.719,-286.701 790.484,-290.925 791.275,-285.988 791.275,-285.988 791.275,-285.988 790.484,-290.925 786.832,-285.276 789.692,-295.862 789.692,-295.862"/>
</g>
<!-- Trait&#45;&gt;Covariate -->
<g id="edge46" class="edge"><title>Trait&#45;&gt;Covariate</title>
<path fill="none" stroke="#5c11a6" d="M895.151,-159.86C859.643,-130.114 791.386,-72.9361 753.674,-41.3448"/>
<ellipse fill="none" stroke="#5c11a6" cx="898.318" cy="-162.512" rx="4.00002" ry="4.00002"/>
<polygon fill="#5c11a6" stroke="#5c11a6" points="753.335,-41.0607 748.559,-31.1895 749.502,-37.8499 745.669,-34.6391 745.669,-34.6391 745.669,-34.6391 749.502,-37.8499 742.779,-38.0887 753.335,-41.0607 753.335,-41.0607"/>
</g>
<!-- Trait&#45;&gt;Variable -->
<g id="edge47" class="edge"><title>Trait&#45;&gt;Variable</title>
<path fill="none" stroke="#613004" d="M883.948,-166.757C879.606,-164.991 875.226,-163.326 871,-162 829.997,-149.138 818.047,-152.875 776,-144 718.007,-131.759 651.771,-116.099 609.346,-105.381"/>
<polygon fill="#613004" stroke="#613004" points="884.098,-166.82 891.575,-174.841 888.708,-168.756 893.318,-170.692 893.318,-170.692 893.318,-170.692 888.708,-168.756 895.06,-166.543 884.098,-166.82 884.098,-166.82"/>
<polygon fill="#613004" stroke="#613004" points="609.309,-105.371 600.729,-98.542 604.463,-104.137 599.618,-102.903 599.618,-102.903 599.618,-102.903 604.463,-104.137 598.507,-107.263 609.309,-105.371 609.309,-105.371"/>
</g>
<!-- Treatment&#45;&gt;Trait -->
<g id="edge48" class="edge"><title>Treatment&#45;&gt;Trait</title>
<path fill="none" stroke="#489a14" d="M1235.56,-251.031C1207.32,-239.838 1167.81,-225.276 1132,-216 1071.23,-200.259 998.831,-190.174 955.736,-185.056"/>
<ellipse fill="none" stroke="#489a14" cx="1239.5" cy="-252.606" rx="4.00001" ry="4.00001"/>
<polygon fill="#489a14" stroke="#489a14" points="955.63,-185.044 946.216,-179.421 950.663,-184.467 945.697,-183.891 945.697,-183.891 945.697,-183.891 950.663,-184.467 945.178,-188.361 955.63,-185.044 955.63,-185.044"/>
</g>
<!-- Treatment&#45;&gt;Yield -->
<g id="edge49" class="edge"><title>Treatment&#45;&gt;Yield</title>
<path fill="none" stroke="#10baac" d="M1221.79,-259.523C1149.39,-249.239 1014.36,-230.372 899,-216 828.428,-207.208 808.777,-216.097 740,-198 737.66,-197.384 735.279,-196.656 732.904,-195.854"/>
<ellipse fill="none" stroke="#10baac" cx="1225.92" cy="-260.11" rx="4.00001" ry="4.00001"/>
<polygon fill="#10baac" stroke="#10baac" points="732.649,-195.758 724.879,-188.02 727.97,-193.994 723.292,-192.23 723.292,-192.23 723.292,-192.23 727.97,-193.994 721.704,-196.441 732.649,-195.758 732.649,-195.758"/>
</g>
<!-- Treatment&#45;&gt;ManagementsTreatments -->
<g id="edge50" class="edge"><title>Treatment&#45;&gt;ManagementsTreatments</title>
<path fill="none" stroke="#89fd81" d="M1304.19,-247.678C1311.98,-242.625 1320.33,-237.151 1328,-232 1338.34,-225.057 1339.82,-221.476 1351,-216 1365.26,-209.018 1381.21,-203.044 1396.51,-198.111"/>
<ellipse fill="none" stroke="#89fd81" cx="1300.59" cy="-250.006" rx="4.00002" ry="4.00002"/>
<polygon fill="#89fd81" stroke="#89fd81" points="1396.9,-197.99 1407.78,-199.316 1401.67,-196.505 1406.45,-195.019 1406.45,-195.019 1406.45,-195.019 1401.67,-196.505 1405.11,-190.722 1396.9,-197.99 1396.9,-197.99"/>
<text text-anchor="middle" x="1422.5" y="-220.3" font-family="Times,serif" font-size="14.00">managements_treatments</text>
</g>
<!-- Treatment&#45;&gt;CitationsTreatments -->
<g id="edge51" class="edge"><title>Treatment&#45;&gt;CitationsTreatments</title>
<path fill="none" stroke="#458bbf" d="M1237.63,-249.33C1229.61,-244.415 1221.56,-238.589 1215,-232 1207.87,-224.839 1201.78,-215.647 1197,-207.044"/>
<ellipse fill="none" stroke="#458bbf" cx="1241.49" cy="-251.572" rx="4.00002" ry="4.00002"/>
<polygon fill="#458bbf" stroke="#458bbf" points="1196.94,-206.936 1196.32,-195.988 1194.63,-202.5 1192.33,-198.064 1192.33,-198.064 1192.33,-198.064 1194.63,-202.5 1188.33,-200.141 1196.94,-206.936 1196.94,-206.936"/>
<text text-anchor="middle" x="1271.5" y="-220.3" font-family="Times,serif" font-size="14.00">citations_treatments</text>
</g>
<!-- User -->
<g id="node38" class="node"><title>User</title>
<ellipse fill="none" stroke="black" cx="1149" cy="-545" rx="27.4223" ry="18"/>
<text text-anchor="middle" x="1149" y="-541.3" font-family="Times,serif" font-size="14.00">User</text>
</g>
<!-- User&#45;&gt;Trait -->
<g id="edge52" class="edge"><title>User&#45;&gt;Trait</title>
<path fill="none" stroke="#822dee" d="M1147.48,-518.875C1143.39,-466.083 1128.87,-341.008 1080,-250 1056.18,-205.652 995.981,-189.807 956.054,-184.147"/>
<ellipse fill="none" stroke="#822dee" cx="1147.78" cy="-523.012" rx="4" ry="4"/>
<polygon fill="#822dee" stroke="#822dee" points="956.046,-184.146 946.691,-178.423 951.086,-183.517 946.125,-182.888 946.125,-182.888 946.125,-182.888 951.086,-183.517 945.559,-187.352 956.046,-184.146 956.046,-184.146"/>
</g>
<!-- User&#45;&gt;Yield -->
<g id="edge53" class="edge"><title>User&#45;&gt;Yield</title>
<path fill="none" stroke="#82015d" d="M1132.44,-522.009C1126.66,-515.839 1119.68,-509.789 1112,-506 1009.7,-455.535 675.365,-505.313 607,-414 562.683,-354.808 601.951,-316.147 635,-250 644.346,-231.294 660.428,-214.158 674.256,-201.643"/>
<ellipse fill="none" stroke="#82015d" cx="1135.17" cy="-525.127" rx="4.00002" ry="4.00002"/>
<polygon fill="#82015d" stroke="#82015d" points="674.532,-201.403 685.026,-198.223 678.3,-198.117 682.069,-194.831 682.069,-194.831 682.069,-194.831 678.3,-198.117 679.112,-191.439 674.532,-201.403 674.532,-201.403"/>
</g>
<!-- User&#45;&gt;Citation -->
<g id="edge54" class="edge"><title>User&#45;&gt;Citation</title>
<path fill="none" stroke="#5002f1" d="M1129.66,-523.091C1124.11,-517.385 1117.95,-511.315 1112,-506 1098.64,-494.073 1082.98,-481.779 1069.77,-471.846"/>
<ellipse fill="none" stroke="#5002f1" cx="1132.64" cy="-526.198" rx="4.00002" ry="4.00002"/>
<polygon fill="#5002f1" stroke="#5002f1" points="1069.52,-471.657 1064.18,-462.078 1065.5,-468.673 1061.49,-465.688 1061.49,-465.688 1061.49,-465.688 1065.5,-468.673 1058.81,-469.299 1069.52,-471.657 1069.52,-471.657"/>
</g>
<!-- User&#45;&gt;Management -->
<g id="edge55" class="edge"><title>User&#45;&gt;Management</title>
<path fill="none" stroke="#5d8b2a" d="M1175.79,-527.974C1191.52,-517.763 1211.16,-503.557 1226,-488 1250.74,-462.07 1272.34,-426.727 1285.5,-402.949"/>
<ellipse fill="none" stroke="#5d8b2a" cx="1172.24" cy="-530.228" rx="4.00002" ry="4.00002"/>
<polygon fill="#5d8b2a" stroke="#5d8b2a" points="1285.51,-402.928 1294.23,-396.286 1287.89,-398.534 1290.28,-394.14 1290.28,-394.14 1290.28,-394.14 1287.89,-398.534 1286.32,-391.993 1285.51,-402.928 1285.51,-402.928"/>
</g>
<!-- User&#45;&gt;Treatment -->
<g id="edge56" class="edge"><title>User&#45;&gt;Treatment</title>
<path fill="none" stroke="#ab0a20" d="M1181.15,-533.382C1231.94,-514.607 1328.78,-470.165 1366,-394 1385.74,-353.604 1340.66,-312.763 1306.88,-289.219"/>
<ellipse fill="none" stroke="#ab0a20" cx="1177.17" cy="-534.818" rx="4.00001" ry="4.00001"/>
<polygon fill="#ab0a20" stroke="#ab0a20" points="1306.86,-289.211 1301.09,-279.887 1302.72,-286.414 1298.58,-283.617 1298.58,-283.617 1298.58,-283.617 1302.72,-286.414 1296.06,-287.347 1306.86,-289.211 1306.86,-289.211"/>
</g>
<!-- User&#45;&gt;Site -->
<g id="edge57" class="edge"><title>User&#45;&gt;Site</title>
<path fill="none" stroke="#38d294" d="M1131.8,-522.383C1126.06,-516.342 1119.26,-510.27 1112,-506 1031.87,-458.891 778.265,-455.984 709,-394 681.273,-369.187 673.477,-324.847 671.454,-296.194"/>
<ellipse fill="none" stroke="#38d294" cx="1134.49" cy="-525.371" rx="4.00002" ry="4.00002"/>
<polygon fill="#38d294" stroke="#38d294" points="671.446,-296.041 675.426,-285.823 671.189,-291.048 670.932,-286.054 670.932,-286.054 670.932,-286.054 671.189,-291.048 666.438,-286.286 671.446,-296.041 671.446,-296.041"/>
</g>
<!-- Variable&#45;&gt;Covariate -->
<g id="edge58" class="edge"><title>Variable&#45;&gt;Covariate</title>
<path fill="none" stroke="#013d2b" d="M601.515,-75.1176C627.302,-63.5852 662.162,-47.996 688.595,-36.1749"/>
<ellipse fill="none" stroke="#013d2b" cx="597.696" cy="-76.8256" rx="4.00002" ry="4.00002"/>
<polygon fill="#013d2b" stroke="#013d2b" points="688.791,-36.0873 699.757,-36.1127 693.356,-34.046 697.92,-32.0048 697.92,-32.0048 697.92,-32.0048 693.356,-34.046 696.083,-27.8968 688.791,-36.0873 688.791,-36.0873"/>
</g>
<!-- Variable&#45;&gt;Trait -->
<g id="edge59" class="edge"><title>Variable&#45;&gt;Trait</title>
<path fill="none" stroke="#a7c2be" d="M611.181,-102.51C657.307,-113.139 730.582,-130.614 794,-144 836.047,-152.875 847.997,-149.138 889,-162 889.448,-162.141 889.898,-162.285 890.349,-162.433"/>
<ellipse fill="none" stroke="#a7c2be" cx="607.072" cy="-101.566" rx="4.00001" ry="4.00001"/>
<polygon fill="#a7c2be" stroke="#a7c2be" points="890.452,-162.471 898.252,-170.179 895.137,-164.217 899.823,-165.962 899.823,-165.962 899.823,-165.962 895.137,-164.217 901.394,-161.745 890.452,-162.471 890.452,-162.471"/>
</g>
<!-- Variable&#45;&gt;FormatsVariable -->
<g id="edge60" class="edge"><title>Variable&#45;&gt;FormatsVariable</title>
<path fill="none" stroke="#774954" d="M528.006,-76.5262C498.157,-65.1551 456.421,-49.2558 424.389,-37.0531"/>
<ellipse fill="none" stroke="#774954" cx="531.896" cy="-78.0079" rx="4.00001" ry="4.00001"/>
<polygon fill="#774954" stroke="#774954" points="424.129,-36.9539 416.386,-29.1887 419.456,-35.1739 414.784,-33.3939 414.784,-33.3939 414.784,-33.3939 419.456,-35.1739 413.182,-37.5991 424.129,-36.9539 424.129,-36.9539"/>
</g>
<!-- Variable&#45;&gt;Prior -->
<g id="edge61" class="edge"><title>Variable&#45;&gt;Prior</title>
<path fill="none" stroke="#250901" d="M566,-65.7923C566,-59.5805 566,-52.8963 566,-46.5786"/>
<ellipse fill="none" stroke="#250901" cx="566" cy="-69.937" rx="4" ry="4"/>
<polygon fill="#250901" stroke="#250901" points="566,-46.4407 570.5,-36.4406 566,-41.4407 566,-36.4407 566,-36.4407 566,-36.4407 566,-41.4407 561.5,-36.4407 566,-46.4407 566,-46.4407"/>
</g>
<!-- Variable&#45;&gt;Likelihood -->
<g id="edge62" class="edge"><title>Variable&#45;&gt;Likelihood</title>
<path fill="none" stroke="#b2b866" d="M526.885,-77.5508C522.563,-76.2625 518.205,-75.0481 514,-74 418.57,-50.2139 391.885,-57.879 296,-36 291.844,-35.0516 287.547,-33.9929 283.25,-32.88"/>
<ellipse fill="none" stroke="#b2b866" cx="530.765" cy="-78.749" rx="4.00001" ry="4.00001"/>
<polygon fill="#b2b866" stroke="#b2b866" points="282.953,-32.8004 274.458,-25.8653 278.123,-31.5061 273.294,-30.2119 273.294,-30.2119 273.294,-30.2119 278.123,-31.5061 272.129,-34.5586 282.953,-32.8004 282.953,-32.8004"/>
</g>
<!-- Workflow -->
<g id="node40" class="node"><title>Workflow</title>
<ellipse fill="none" stroke="black" cx="3077" cy="-545" rx="47.169" ry="18"/>
<text text-anchor="middle" x="3077" y="-541.3" font-family="Times,serif" font-size="14.00">Workflow</text>
</g>
<!-- Yieldsview -->
<g id="node42" class="node"><title>Yieldsview</title>
<ellipse fill="none" stroke="black" cx="3194" cy="-545" rx="51.4931" ry="18"/>
<text text-anchor="middle" x="3194" y="-541.3" font-family="Times,serif" font-size="14.00">Yieldsview</text>
</g>
</g>
</svg>
