<?xml version="1.0" encoding="UTF-8" standalone="no"?>
<!DOCTYPE svg PUBLIC "-//W3C//DTD SVG 1.0//EN"
 "http://www.w3.org/TR/2001/REC-SVG-20010904/DTD/svg10.dtd" [
 <!ATTLIST svg xmlns:xlink CDATA #FIXED "http://www.w3.org/1999/xlink">
]>
<!-- Generated by Graphviz version 2.20.2 (Tue Mar &#160;2 19:03:41 UTC 2010)
     For user: (thrive) thrive,,, -->
<!-- Title: controllers_diagram Pages: 1 -->
<svg width="2725pt" height="1443pt"
 viewBox="0.00 0.00 2725.00 1443.00" xmlns="http://www.w3.org/2000/svg" xmlns:xlink="http://www.w3.org/1999/xlink">
<g id="graph0" class="graph" transform="scale(1 1) rotate(0) translate(4 1439)">
<title>controllers_diagram</title>
<polygon style="fill:white;stroke:white;" points="-4,4 -4,-1439 2721,-1439 2721,4 -4,4"/>
<!-- _diagram_info -->
<g id="node1" class="node"><title>_diagram_info</title>
<text text-anchor="start" x="1945.5" y="-1418.8" style="font-family:Times New Roman;font-size:13.00;">Controllers diagram</text>
<text text-anchor="start" x="1945.5" y="-1401.8" style="font-family:Times New Roman;font-size:13.00;">Date: Mar 15 2013 &#45; 10:09</text>
<text text-anchor="start" x="1945.5" y="-1384.8" style="font-family:Times New Roman;font-size:13.00;">Migration version: 20130109205535</text>
<text text-anchor="start" x="1945.5" y="-1367.8" style="font-family:Times New Roman;font-size:13.00;">Generated by RailRoady 1.1.0</text>
<text text-anchor="start" x="1945.5" y="-1350.8" style="font-family:Times New Roman;font-size:13.00;">http://railroady.prestonlee.com</text>
</g>
<!-- EntitiesController -->
<g id="node2" class="node"><title>EntitiesController</title>
<ellipse style="fill:none;stroke:black;" cx="131" cy="-490" rx="95.8938" ry="18"/>
<text text-anchor="middle" x="131" y="-485.9" style="font-family:Times New Roman;font-size:14.00;">EntitiesController</text>
</g>
<!-- CitationsController -->
<g id="node3" class="node"><title>CitationsController</title>
<ellipse style="fill:none;stroke:black;" cx="1831" cy="-671" rx="102.148" ry="18"/>
<text text-anchor="middle" x="1831" y="-666.9" style="font-family:Times New Roman;font-size:14.00;">CitationsController</text>
</g>
<!-- YieldsController -->
<g id="node4" class="node"><title>YieldsController</title>
<ellipse style="fill:none;stroke:black;" cx="1064" cy="-22" rx="86.1654" ry="18"/>
<text text-anchor="middle" x="1064" y="-17.9" style="font-family:Times New Roman;font-size:14.00;">YieldsController</text>
</g>
<!-- UsersController -->
<g id="node5" class="node"><title>UsersController</title>
<ellipse style="fill:none;stroke:black;" cx="708" cy="-1276" rx="84.9707" ry="18"/>
<text text-anchor="middle" x="708" y="-1271.9" style="font-family:Times New Roman;font-size:14.00;">UsersController</text>
</g>
<!-- FormatsController -->
<g id="node6" class="node"><title>FormatsController</title>
<ellipse style="fill:none;stroke:black;" cx="1586" cy="-562" rx="97.9784" ry="18"/>
<text text-anchor="middle" x="1586" y="-557.9" style="font-family:Times New Roman;font-size:14.00;">FormatsController</text>
</g>
<!-- SitesController -->
<g id="node7" class="node"><title>SitesController</title>
<ellipse style="fill:none;stroke:black;" cx="916" cy="-634" rx="82.1898" ry="18"/>
<text text-anchor="middle" x="916" y="-629.9" style="font-family:Times New Roman;font-size:14.00;">SitesController</text>
</g>
<!-- TreatmentsController -->
<g id="node8" class="node"><title>TreatmentsController</title>
<ellipse style="fill:none;stroke:black;" cx="153" cy="-71" rx="112.767" ry="18"/>
<text text-anchor="middle" x="153" y="-66.9" style="font-family:Times New Roman;font-size:14.00;">TreatmentsController</text>
</g>
<!-- SpeciesController -->
<g id="node9" class="node"><title>SpeciesController</title>
<ellipse style="fill:none;stroke:black;" cx="2128" cy="-477" rx="94.004" ry="18"/>
<text text-anchor="middle" x="2128" y="-472.9" style="font-family:Times New Roman;font-size:14.00;">SpeciesController</text>
</g>
<!-- MethodsController -->
<g id="node10" class="node"><title>MethodsController</title>
<ellipse style="fill:none;stroke:black;" cx="1231" cy="-316" rx="100.063" ry="18"/>
<text text-anchor="middle" x="1231" y="-311.9" style="font-family:Times New Roman;font-size:14.00;">MethodsController</text>
</g>
<!-- MachinesController -->
<g id="node11" class="node"><title>MachinesController</title>
<ellipse style="fill:none;stroke:black;" cx="1683" cy="-26" rx="103.037" ry="18"/>
<text text-anchor="middle" x="1683" y="-21.9" style="font-family:Times New Roman;font-size:14.00;">MachinesController</text>
</g>
<!-- CultivarsController -->
<g id="node12" class="node"><title>CultivarsController</title>
<ellipse style="fill:none;stroke:black;" cx="1517" cy="-318" rx="102.148" ry="18"/>
<text text-anchor="middle" x="1517" y="-313.9" style="font-family:Times New Roman;font-size:14.00;">CultivarsController</text>
</g>
<!-- InputsController -->
<g id="node13" class="node"><title>InputsController</title>
<ellipse style="fill:none;stroke:black;" cx="90" cy="-869" rx="89.139" ry="18"/>
<text text-anchor="middle" x="90" y="-864.9" style="font-family:Times New Roman;font-size:14.00;">InputsController</text>
</g>
<!-- SessionsController -->
<g id="node14" class="node"><title>SessionsController</title>
<ellipse style="fill:none;stroke:black;" cx="2616" cy="-673" rx="100.063" ry="18"/>
<text text-anchor="middle" x="2616" y="-668.9" style="font-family:Times New Roman;font-size:14.00;">SessionsController</text>
</g>
<!-- YieldsviewsController -->
<g id="node15" class="node"><title>YieldsviewsController</title>
<ellipse style="fill:none;stroke:black;" cx="2129" cy="-867" rx="113.961" ry="18"/>
<text text-anchor="middle" x="2129" y="-862.9" style="font-family:Times New Roman;font-size:14.00;">YieldsviewsController</text>
</g>
<!-- MapsController -->
<g id="node16" class="node"><title>MapsController</title>
<ellipse style="fill:none;stroke:black;" cx="1385" cy="-1328" rx="82.8866" ry="18"/>
<text text-anchor="middle" x="1385" y="-1323.9" style="font-family:Times New Roman;font-size:14.00;">MapsController</text>
</g>
<!-- PriorsController -->
<g id="node17" class="node"><title>PriorsController</title>
<ellipse style="fill:none;stroke:black;" cx="1793" cy="-378" rx="86.8603" ry="18"/>
<text text-anchor="middle" x="1793" y="-373.9" style="font-family:Times New Roman;font-size:14.00;">PriorsController</text>
</g>
<!-- ManagementsTreatmentsController -->
<g id="node18" class="node"><title>ManagementsTreatmentsController</title>
<ellipse style="fill:none;stroke:black;" cx="2051" cy="-55" rx="180.169" ry="18"/>
<text text-anchor="middle" x="2051" y="-50.9" style="font-family:Times New Roman;font-size:14.00;">ManagementsTreatmentsController</text>
</g>
<!-- ApplicationController -->
<g id="node19" class="node"><title>ApplicationController</title>
<ellipse style="fill:none;stroke:black;" cx="1368" cy="-665" rx="111.876" ry="18"/>
<text text-anchor="middle" x="1368" y="-660.9" style="font-family:Times New Roman;font-size:14.00;">ApplicationController</text>
</g>
<!-- ApplicationController&#45;&gt;EntitiesController -->
<g id="edge2" class="edge"><title>ApplicationController&#45;&gt;EntitiesController</title>
<path style="fill:none;stroke:black;" d="M1273,-652C1037,-618 424,-532 208,-501"/>
<polygon style="fill:none;stroke:black;" points="1272.7,-655.488 1283,-653 1273.4,-648.522 1272.7,-655.488"/>
</g>
<!-- ApplicationController&#45;&gt;CitationsController -->
<g id="edge4" class="edge"><title>ApplicationController&#45;&gt;CitationsController</title>
<path style="fill:none;stroke:black;" d="M1490,-666C1565,-667 1658,-669 1729,-670"/>
<polygon style="fill:none;stroke:black;" points="1490,-662.5 1480,-666 1490,-669.5 1490,-662.5"/>
</g>
<!-- ApplicationController&#45;&gt;YieldsController -->
<g id="edge6" class="edge"><title>ApplicationController&#45;&gt;YieldsController</title>
<path style="fill:none;stroke:black;" d="M1345,-639C1298,-584 1187,-448 1129,-316 1086,-217 1070,-88 1066,-40"/>
<polygon style="fill:none;stroke:black;" points="1342.78,-641.779 1352,-647 1348.05,-637.169 1342.78,-641.779"/>
</g>
<!-- ApplicationController&#45;&gt;UsersController -->
<g id="edge8" class="edge"><title>ApplicationController&#45;&gt;UsersController</title>
<path style="fill:none;stroke:black;" d="M1352,-692C1335,-717 1308,-756 1278,-785 1141,-917 1069,-904 926,-1030 840,-1107 754,-1215 722,-1258"/>
<polygon style="fill:none;stroke:black;" points="1355.2,-693.441 1357,-683 1349.08,-690.042 1355.2,-693.441"/>
</g>
<!-- ApplicationController&#45;&gt;FormatsController -->
<g id="edge10" class="edge"><title>ApplicationController&#45;&gt;FormatsController</title>
<path style="fill:none;stroke:black;" d="M1413,-644C1454,-624 1513,-597 1550,-579"/>
<polygon style="fill:none;stroke:black;" points="1411.72,-640.74 1404,-648 1414.56,-647.137 1411.72,-640.74"/>
</g>
<!-- ApplicationController&#45;&gt;SitesController -->
<g id="edge12" class="edge"><title>ApplicationController&#45;&gt;SitesController</title>
<path style="fill:none;stroke:black;" d="M1255,-657C1173,-651 1066,-645 994,-639"/>
<polygon style="fill:none;stroke:black;" points="1254.7,-660.488 1265,-658 1255.4,-653.522 1254.7,-660.488"/>
</g>
<!-- ApplicationController&#45;&gt;TreatmentsController -->
<g id="edge14" class="edge"><title>ApplicationController&#45;&gt;TreatmentsController</title>
<path style="fill:none;stroke:black;" d="M1301,-646C1243,-630 1154,-603 1079,-575 700,-433 285,-161 179,-89"/>
<polygon style="fill:none;stroke:black;" points="1300.42,-649.479 1311,-649 1302.43,-642.774 1300.42,-649.479"/>
</g>
<!-- ApplicationController&#45;&gt;SpeciesController -->
<g id="edge16" class="edge"><title>ApplicationController&#45;&gt;SpeciesController</title>
<path style="fill:none;stroke:black;" d="M1439,-647C1589,-610 1933,-525 2070,-491"/>
<polygon style="fill:none;stroke:black;" points="1437.57,-643.774 1429,-650 1439.58,-650.479 1437.57,-643.774"/>
</g>
<!-- ApplicationController&#45;&gt;MethodsController -->
<g id="edge18" class="edge"><title>ApplicationController&#45;&gt;MethodsController</title>
<path style="fill:none;stroke:black;" d="M1355,-637C1338,-603 1310,-540 1288,-485 1267,-431 1246,-365 1237,-334"/>
<polygon style="fill:none;stroke:black;" points="1352.04,-639.015 1359,-647 1358.54,-636.415 1352.04,-639.015"/>
</g>
<!-- ApplicationController&#45;&gt;MachinesController -->
<g id="edge20" class="edge"><title>ApplicationController&#45;&gt;MachinesController</title>
<path style="fill:none;stroke:black;" d="M1392,-640C1443,-586 1561,-452 1621,-318 1664,-221 1678,-92 1682,-44"/>
<polygon style="fill:none;stroke:black;" points="1389.6,-637.454 1385,-647 1394.55,-642.404 1389.6,-637.454"/>
</g>
<!-- ApplicationController&#45;&gt;CultivarsController -->
<g id="edge22" class="edge"><title>ApplicationController&#45;&gt;CultivarsController</title>
<path style="fill:none;stroke:black;" d="M1383,-638C1401,-603 1432,-541 1456,-485 1479,-432 1501,-367 1511,-336"/>
<polygon style="fill:none;stroke:black;" points="1379.8,-636.559 1378,-647 1385.92,-639.958 1379.8,-636.559"/>
</g>
<!-- ApplicationController&#45;&gt;InputsController -->
<g id="edge24" class="edge"><title>ApplicationController&#45;&gt;InputsController</title>
<path style="fill:none;stroke:black;" d="M1278,-680C1036,-718 377,-823 160,-858"/>
<polygon style="fill:none;stroke:black;" points="1278.88,-683.393 1288,-678 1277.51,-676.529 1278.88,-683.393"/>
</g>
<!-- ApplicationController&#45;&gt;SessionsController -->
<g id="edge26" class="edge"><title>ApplicationController&#45;&gt;SessionsController</title>
<path style="fill:none;stroke:black;" d="M1486,-660C1580,-656 1714,-652 1832,-651 2079,-651 2371,-662 2519,-669"/>
<polygon style="fill:none;stroke:black;" points="1486,-656.5 1476,-660 1486,-663.5 1486,-656.5"/>
</g>
<!-- ApplicationController&#45;&gt;YieldsviewsController -->
<g id="edge28" class="edge"><title>ApplicationController&#45;&gt;YieldsviewsController</title>
<path style="fill:none;stroke:black;" d="M1436,-683C1584,-722 1932,-815 2071,-852"/>
<polygon style="fill:none;stroke:black;" points="1436.58,-679.521 1426,-680 1434.57,-686.226 1436.58,-679.521"/>
</g>
<!-- ApplicationController&#45;&gt;MapsController -->
<g id="edge30" class="edge"><title>ApplicationController&#45;&gt;MapsController</title>
<path style="fill:none;stroke:black;" d="M1389,-691C1420,-731 1475,-806 1480,-839 1491,-923 1440,-938 1422,-1020 1399,-1129 1389,-1262 1386,-1310"/>
<polygon style="fill:none;stroke:black;" points="1391.8,-688.9 1383,-683 1386.2,-693.1 1391.8,-688.9"/>
</g>
<!-- ApplicationController&#45;&gt;PriorsController -->
<g id="edge32" class="edge"><title>ApplicationController&#45;&gt;PriorsController</title>
<path style="fill:none;stroke:black;" d="M1394,-640C1417,-619 1453,-586 1486,-562 1581,-493 1704,-425 1761,-395"/>
<polygon style="fill:none;stroke:black;" points="1391.22,-637.781 1386,-647 1395.83,-643.049 1391.22,-637.781"/>
</g>
<!-- ApplicationController&#45;&gt;ManagementsTreatmentsController -->
<g id="edge34" class="edge"><title>ApplicationController&#45;&gt;ManagementsTreatmentsController</title>
<path style="fill:none;stroke:black;" d="M1396,-640C1509,-540 1933,-160 2031,-73"/>
<polygon style="fill:none;stroke:black;" points="1393.22,-637.781 1388,-647 1397.83,-643.049 1393.22,-637.781"/>
</g>
<!-- TraitsController -->
<g id="node20" class="node"><title>TraitsController</title>
<ellipse style="fill:none;stroke:black;" cx="170" cy="-1287" rx="84.9707" ry="18"/>
<text text-anchor="middle" x="170" y="-1282.9" style="font-family:Times New Roman;font-size:14.00;">TraitsController</text>
</g>
<!-- ApplicationController&#45;&gt;TraitsController -->
<g id="edge36" class="edge"><title>ApplicationController&#45;&gt;TraitsController</title>
<path style="fill:none;stroke:black;" d="M1310,-684C1249,-706 1147,-741 1061,-771 952,-809 925,-821 820,-870 556,-994 273,-1207 192,-1270"/>
<polygon style="fill:none;stroke:black;" points="1311.43,-687.226 1320,-681 1309.42,-680.521 1311.43,-687.226"/>
</g>
<!-- ErrorsController -->
<g id="node21" class="node"><title>ErrorsController</title>
<ellipse style="fill:none;stroke:black;" cx="883" cy="-884" rx="87.7515" ry="18"/>
<text text-anchor="middle" x="883" y="-879.9" style="font-family:Times New Roman;font-size:14.00;">ErrorsController</text>
</g>
<!-- ApplicationController&#45;&gt;ErrorsController -->
<g id="edge38" class="edge"><title>ApplicationController&#45;&gt;ErrorsController</title>
<path style="fill:none;stroke:black;" d="M1297,-683C1225,-702 1113,-737 1022,-785 977,-808 930,-845 904,-866"/>
<polygon style="fill:none;stroke:black;" points="1298.43,-686.226 1307,-680 1296.42,-679.521 1298.43,-686.226"/>
</g>
<!-- EnsemblesController -->
<g id="node22" class="node"><title>EnsemblesController</title>
<ellipse style="fill:none;stroke:black;" cx="1159" cy="-561" rx="109.791" ry="18"/>
<text text-anchor="middle" x="1159" y="-556.9" style="font-family:Times New Roman;font-size:14.00;">EnsemblesController</text>
</g>
<!-- ApplicationController&#45;&gt;EnsemblesController -->
<g id="edge40" class="edge"><title>ApplicationController&#45;&gt;EnsemblesController</title>
<path style="fill:none;stroke:black;" d="M1324,-643C1285,-623 1229,-596 1194,-578"/>
<polygon style="fill:none;stroke:black;" points="1322.56,-646.203 1333,-648 1325.96,-640.084 1322.56,-646.203"/>
</g>
<!-- CitationsSitesController -->
<g id="node23" class="node"><title>CitationsSitesController</title>
<ellipse style="fill:none;stroke:black;" cx="631" cy="-462" rx="125.079" ry="18"/>
<text text-anchor="middle" x="631" y="-457.9" style="font-family:Times New Roman;font-size:14.00;">CitationsSitesController</text>
</g>
<!-- ApplicationController&#45;&gt;CitationsSitesController -->
<g id="edge42" class="edge"><title>ApplicationController&#45;&gt;CitationsSitesController</title>
<path style="fill:none;stroke:black;" d="M1301,-646C1159,-608 824,-515 689,-478"/>
<polygon style="fill:none;stroke:black;" points="1300.42,-649.479 1311,-649 1302.43,-642.774 1300.42,-649.479"/>
</g>
<!-- VariablesController -->
<g id="node24" class="node"><title>VariablesController</title>
<ellipse style="fill:none;stroke:black;" cx="1526" cy="-1020" rx="102.148" ry="18"/>
<text text-anchor="middle" x="1526" y="-1015.9" style="font-family:Times New Roman;font-size:14.00;">VariablesController</text>
</g>
<!-- ApplicationController&#45;&gt;VariablesController -->
<g id="edge44" class="edge"><title>ApplicationController&#45;&gt;VariablesController</title>
<path style="fill:none;stroke:black;" d="M1389,-691C1414,-724 1455,-783 1480,-839 1505,-896 1518,-969 1523,-1002"/>
<polygon style="fill:none;stroke:black;" points="1391.8,-688.9 1383,-683 1386.2,-693.1 1391.8,-688.9"/>
</g>
<!-- PftsSpeciesController -->
<g id="node25" class="node"><title>PftsSpeciesController</title>
<ellipse style="fill:none;stroke:black;" cx="2054" cy="-1291" rx="112.071" ry="18"/>
<text text-anchor="middle" x="2054" y="-1286.9" style="font-family:Times New Roman;font-size:14.00;">PftsSpeciesController</text>
</g>
<!-- ApplicationController&#45;&gt;PftsSpeciesController -->
<g id="edge46" class="edge"><title>ApplicationController&#45;&gt;PftsSpeciesController</title>
<path style="fill:none;stroke:black;" d="M1387,-691C1405,-715 1432,-750 1457,-779 1533,-866 1553,-888 1638,-965 1779,-1092 1963,-1226 2029,-1273"/>
<polygon style="fill:none;stroke:black;" points="1389.8,-688.9 1381,-683 1384.2,-693.1 1389.8,-688.9"/>
</g>
<!-- DbfilesController -->
<g id="node26" class="node"><title>DbfilesController</title>
<ellipse style="fill:none;stroke:black;" cx="1071" cy="-1337" rx="91.2232" ry="18"/>
<text text-anchor="middle" x="1071" y="-1332.9" style="font-family:Times New Roman;font-size:14.00;">DbfilesController</text>
</g>
<!-- ApplicationController&#45;&gt;DbfilesController -->
<g id="edge48" class="edge"><title>ApplicationController&#45;&gt;DbfilesController</title>
<path style="fill:none;stroke:black;" d="M1352,-692C1332,-726 1296,-787 1266,-839 1218,-923 1197,-940 1159,-1030 1115,-1136 1085,-1271 1075,-1319"/>
<polygon style="fill:none;stroke:black;" points="1355.2,-693.441 1357,-683 1349.08,-690.042 1355.2,-693.441"/>
</g>
<!-- InputsRunsController -->
<g id="node27" class="node"><title>InputsRunsController</title>
<ellipse style="fill:none;stroke:black;" cx="1373" cy="-19" rx="112.071" ry="18"/>
<text text-anchor="middle" x="1373" y="-14.9" style="font-family:Times New Roman;font-size:14.00;">InputsRunsController</text>
</g>
<!-- ApplicationController&#45;&gt;InputsRunsController -->
<g id="edge50" class="edge"><title>ApplicationController&#45;&gt;InputsRunsController</title>
<path style="fill:none;stroke:black;" d="M1349,-639C1328,-605 1293,-544 1288,-485 1282,-408 1318,-392 1333,-316 1354,-211 1367,-84 1371,-37"/>
<polygon style="fill:none;stroke:black;" points="1346.2,-641.1 1355,-647 1351.8,-636.9 1346.2,-641.1"/>
</g>
<!-- ModelsController -->
<g id="node28" class="node"><title>ModelsController</title>
<ellipse style="fill:none;stroke:black;" cx="2587" cy="-1222" rx="91.2232" ry="18"/>
<text text-anchor="middle" x="2587" y="-1217.9" style="font-family:Times New Roman;font-size:14.00;">ModelsController</text>
</g>
<!-- ApplicationController&#45;&gt;ModelsController -->
<g id="edge52" class="edge"><title>ApplicationController&#45;&gt;ModelsController</title>
<path style="fill:none;stroke:black;" d="M1430,-684C1494,-703 1596,-736 1683,-765 2049,-890 2453,-1137 2560,-1205"/>
<polygon style="fill:none;stroke:black;" points="1430.58,-680.521 1420,-681 1428.57,-687.226 1430.58,-680.521"/>
</g>
<!-- ManagementsController -->
<g id="node29" class="node"><title>ManagementsController</title>
<ellipse style="fill:none;stroke:black;" cx="1150" cy="-785" rx="125.969" ry="18"/>
<text text-anchor="middle" x="1150" y="-780.9" style="font-family:Times New Roman;font-size:14.00;">ManagementsController</text>
</g>
<!-- ApplicationController&#45;&gt;ManagementsController -->
<g id="edge54" class="edge"><title>ApplicationController&#45;&gt;ManagementsController</title>
<path style="fill:none;stroke:black;" d="M1327,-687C1285,-710 1220,-747 1182,-768"/>
<polygon style="fill:none;stroke:black;" points="1328.96,-689.916 1336,-682 1325.56,-683.797 1328.96,-689.916"/>
</g>
<!-- StaticController -->
<g id="node30" class="node"><title>StaticController</title>
<ellipse style="fill:none;stroke:black;" cx="960" cy="-363" rx="86.8603" ry="18"/>
<text text-anchor="middle" x="960" y="-358.9" style="font-family:Times New Roman;font-size:14.00;">StaticController</text>
</g>
<!-- ApplicationController&#45;&gt;StaticController -->
<g id="edge56" class="edge"><title>ApplicationController&#45;&gt;StaticController</title>
<path style="fill:none;stroke:black;" d="M1347,-639C1328,-617 1300,-585 1271,-561 1177,-483 1050,-411 992,-380"/>
<polygon style="fill:none;stroke:black;" points="1344.2,-641.1 1353,-647 1349.8,-636.9 1344.2,-641.1"/>
</g>
<!-- ContactsController -->
<g id="node31" class="node"><title>ContactsController</title>
<ellipse style="fill:none;stroke:black;" cx="2586" cy="-124" rx="100.953" ry="18"/>
<text text-anchor="middle" x="2586" y="-119.9" style="font-family:Times New Roman;font-size:14.00;">ContactsController</text>
</g>
<!-- ApplicationController&#45;&gt;ContactsController -->
<g id="edge58" class="edge"><title>ApplicationController&#45;&gt;ContactsController</title>
<path style="fill:none;stroke:black;" d="M1436,-647C1495,-630 1582,-604 1656,-576 2022,-434 2440,-206 2555,-141"/>
<polygon style="fill:none;stroke:black;" points="1434.57,-643.774 1426,-650 1436.58,-650.479 1434.57,-643.774"/>
</g>
<!-- LikelihoodsController -->
<g id="node32" class="node"><title>LikelihoodsController</title>
<ellipse style="fill:none;stroke:black;" cx="1273" cy="-1030" rx="111.876" ry="18"/>
<text text-anchor="middle" x="1273" y="-1025.9" style="font-family:Times New Roman;font-size:14.00;">LikelihoodsController</text>
</g>
<!-- ApplicationController&#45;&gt;LikelihoodsController -->
<g id="edge60" class="edge"><title>ApplicationController&#45;&gt;LikelihoodsController</title>
<path style="fill:none;stroke:black;" d="M1346,-691C1321,-723 1281,-781 1266,-839 1251,-901 1262,-978 1269,-1012"/>
<polygon style="fill:none;stroke:black;" points="1348.8,-693.1 1352,-683 1343.2,-688.9 1348.8,-693.1"/>
</g>
<!-- PosteriorsRunsController -->
<g id="node33" class="node"><title>PosteriorsRunsController</title>
<ellipse style="fill:none;stroke:black;" cx="1589" cy="-779" rx="129.943" ry="18"/>
<text text-anchor="middle" x="1589" y="-774.9" style="font-family:Times New Roman;font-size:14.00;">PosteriorsRunsController</text>
</g>
<!-- ApplicationController&#45;&gt;PosteriorsRunsController -->
<g id="edge62" class="edge"><title>ApplicationController&#45;&gt;PosteriorsRunsController</title>
<path style="fill:none;stroke:black;" d="M1411,-687C1453,-709 1516,-741 1555,-761"/>
<polygon style="fill:none;stroke:black;" points="1412.44,-683.797 1402,-682 1409.04,-689.916 1412.44,-683.797"/>
</g>
<!-- WorkflowsController -->
<g id="node34" class="node"><title>WorkflowsController</title>
<ellipse style="fill:none;stroke:black;" cx="699" cy="-56" rx="109.986" ry="18"/>
<text text-anchor="middle" x="699" y="-51.9" style="font-family:Times New Roman;font-size:14.00;">WorkflowsController</text>
</g>
<!-- ApplicationController&#45;&gt;WorkflowsController -->
<g id="edge64" class="edge"><title>ApplicationController&#45;&gt;WorkflowsController</title>
<path style="fill:none;stroke:black;" d="M1345,-639C1326,-618 1298,-587 1271,-561 1065,-360 798,-137 721,-74"/>
<polygon style="fill:none;stroke:black;" points="1342.78,-641.779 1352,-647 1348.05,-637.169 1342.78,-641.779"/>
</g>
<!-- CovariatesController -->
<g id="node35" class="node"><title>CovariatesController</title>
<ellipse style="fill:none;stroke:black;" cx="1038" cy="-1030" rx="109.986" ry="18"/>
<text text-anchor="middle" x="1038" y="-1025.9" style="font-family:Times New Roman;font-size:14.00;">CovariatesController</text>
</g>
<!-- ApplicationController&#45;&gt;CovariatesController -->
<g id="edge66" class="edge"><title>ApplicationController&#45;&gt;CovariatesController</title>
<path style="fill:none;stroke:black;" d="M1349,-692C1332,-716 1304,-754 1278,-785 1200,-875 1099,-973 1057,-1012"/>
<polygon style="fill:none;stroke:black;" points="1352.37,-693.262 1355,-683 1346.54,-689.379 1352.37,-693.262"/>
</g>
<!-- CitationsTreatmentsController -->
<g id="node36" class="node"><title>CitationsTreatmentsController</title>
<ellipse style="fill:none;stroke:black;" cx="1796" cy="-965" rx="155.849" ry="18"/>
<text text-anchor="middle" x="1796" y="-960.9" style="font-family:Times New Roman;font-size:14.00;">CitationsTreatmentsController</text>
</g>
<!-- ApplicationController&#45;&gt;CitationsTreatmentsController -->
<g id="edge68" class="edge"><title>ApplicationController&#45;&gt;CitationsTreatmentsController</title>
<path style="fill:none;stroke:black;" d="M1384,-692C1400,-716 1427,-753 1457,-779 1551,-858 1684,-919 1752,-948"/>
<polygon style="fill:none;stroke:black;" points="1386.92,-690.042 1379,-683 1380.8,-693.441 1386.92,-690.042"/>
</g>
<!-- RunsController -->
<g id="node37" class="node"><title>RunsController</title>
<ellipse style="fill:none;stroke:black;" cx="1372" cy="-485" rx="82.1898" ry="18"/>
<text text-anchor="middle" x="1372" y="-480.9" style="font-family:Times New Roman;font-size:14.00;">RunsController</text>
</g>
<!-- ApplicationController&#45;&gt;RunsController -->
<g id="edge70" class="edge"><title>ApplicationController&#45;&gt;RunsController</title>
<path style="fill:none;stroke:black;" d="M1368,-637C1369,-599 1371,-534 1372,-503"/>
<polygon style="fill:none;stroke:black;" points="1364.5,-637 1368,-647 1371.5,-637 1364.5,-637"/>
</g>
<!-- PftsPriorsController -->
<g id="node38" class="node"><title>PftsPriorsController</title>
<ellipse style="fill:none;stroke:black;" cx="1373" cy="-839" rx="104.927" ry="18"/>
<text text-anchor="middle" x="1373" y="-834.9" style="font-family:Times New Roman;font-size:14.00;">PftsPriorsController</text>
</g>
<!-- ApplicationController&#45;&gt;PftsPriorsController -->
<g id="edge72" class="edge"><title>ApplicationController&#45;&gt;PftsPriorsController</title>
<path style="fill:none;stroke:black;" d="M1369,-693C1370,-729 1372,-791 1373,-821"/>
<polygon style="fill:none;stroke:black;" points="1372.5,-693 1369,-683 1365.5,-693 1372.5,-693"/>
</g>
<!-- PftsController -->
<g id="node39" class="node"><title>PftsController</title>
<ellipse style="fill:none;stroke:black;" cx="1690" cy="-1318" rx="77.1319" ry="18"/>
<text text-anchor="middle" x="1690" y="-1313.9" style="font-family:Times New Roman;font-size:14.00;">PftsController</text>
</g>
<!-- ApplicationController&#45;&gt;PftsController -->
<g id="edge74" class="edge"><title>ApplicationController&#45;&gt;PftsController</title>
<path style="fill:none;stroke:black;" d="M1388,-691C1447,-767 1614,-983 1630,-1020 1673,-1120 1686,-1252 1689,-1300"/>
<polygon style="fill:none;stroke:black;" points="1390.8,-688.9 1382,-683 1385.2,-693.1 1390.8,-688.9"/>
</g>
<!-- PosteriorsController -->
<g id="node40" class="node"><title>PosteriorsController</title>
<ellipse style="fill:none;stroke:black;" cx="592" cy="-845" rx="105.818" ry="18"/>
<text text-anchor="middle" x="592" y="-840.9" style="font-family:Times New Roman;font-size:14.00;">PosteriorsController</text>
</g>
<!-- ApplicationController&#45;&gt;PosteriorsController -->
<g id="edge76" class="edge"><title>ApplicationController&#45;&gt;PosteriorsController</title>
<path style="fill:none;stroke:black;" d="M1294,-682C1142,-718 797,-798 655,-830"/>
<polygon style="fill:none;stroke:black;" points="1294.88,-685.393 1304,-680 1293.51,-678.529 1294.88,-685.393"/>
</g>
</g>
</svg>
