<?xml version="1.0" encoding="UTF-8" standalone="no"?>
<!DOCTYPE svg PUBLIC "-//W3C//DTD SVG 1.0//EN"
 "http://www.w3.org/TR/2001/REC-SVG-20010904/DTD/svg10.dtd" [
 <!ATTLIST svg xmlns:xlink CDATA #FIXED "http://www.w3.org/1999/xlink">
]>
<!-- Generated by Graphviz version 2.20.2 (Tue Mar &#160;2 19:03:41 UTC 2010)
     For user: (thrive) thrive,,, -->
<!-- Title: models_diagram Pages: 1 -->
<svg width="2889pt" height="906pt"
 viewBox="0.00 0.00 2889.00 906.00" xmlns="http://www.w3.org/2000/svg" xmlns:xlink="http://www.w3.org/1999/xlink">
<g id="graph0" class="graph" transform="scale(1 1) rotate(0) translate(4 902)">
<title>models_diagram</title>
<polygon style="fill:white;stroke:white;" points="-4,4 -4,-902 2885,-902 2885,4 -4,4"/>
<!-- _diagram_info -->
<g id="node1" class="node"><title>_diagram_info</title>
<text text-anchor="start" x="7.5" y="-881.8" style="font-family:Times New Roman;font-size:13.00;">Models diagram</text>
<text text-anchor="start" x="7.5" y="-864.8" style="font-family:Times New Roman;font-size:13.00;">Date: Mar 15 2013 &#45; 10:09</text>
<text text-anchor="start" x="7.5" y="-847.8" style="font-family:Times New Roman;font-size:13.00;">Migration version: 20130109205535</text>
<text text-anchor="start" x="7.5" y="-830.8" style="font-family:Times New Roman;font-size:13.00;">Generated by RailRoady 1.1.0</text>
<text text-anchor="start" x="7.5" y="-813.8" style="font-family:Times New Roman;font-size:13.00;">http://railroady.prestonlee.com</text>
</g>
<!-- Site -->
<g id="node2" class="node"><title>Site</title>
<ellipse style="fill:none;stroke:black;" cx="851" cy="-748" rx="29.8799" ry="18"/>
<text text-anchor="middle" x="851" y="-743.9" style="font-family:Times New Roman;font-size:14.00;">Site</text>
</g>
<!-- CitationsSites -->
<g id="node4" class="node"><title>CitationsSites</title>
<ellipse style="fill:none;stroke:black;" cx="865" cy="-584" rx="77.1319" ry="18"/>
<text text-anchor="middle" x="865" y="-579.9" style="font-family:Times New Roman;font-size:14.00;">CitationsSites</text>
</g>
<!-- Site&#45;&gt;CitationsSites -->
<g id="edge2" class="edge"><title>Site&#45;&gt;CitationsSites</title>
<path style="fill:none;stroke:#5fe1ea;" d="M854,-722C856,-703 860,-678 865,-656 868,-647 871,-646 872,-638 874,-630 873,-627 872,-620 872,-617 872,-615 872,-612"/>
<ellipse style="fill:none;stroke:#5fe1ea;" cx="853.496" cy="-726.031" rx="4.00001" ry="4.00001"/>
<polygon style="fill:#5fe1ea;stroke:#5fe1ea;" points="871.961,-611.806 874.413,-601.117 870.981,-606.903 870,-602 870,-602 870,-602 870.981,-606.903 865.587,-602.883 871.961,-611.806 871.961,-611.806"/>
<text text-anchor="middle" x="911" y="-669.9" style="font-family:Times New Roman;font-size:14.00;">citation_sites</text>
</g>
<!-- Yield -->
<g id="node16" class="node"><title>Yield</title>
<ellipse style="fill:none;stroke:black;" cx="1031" cy="-404" rx="32.8565" ry="18"/>
<text text-anchor="middle" x="1031" y="-399.9" style="font-family:Times New Roman;font-size:14.00;">Yield</text>
</g>
<!-- Site&#45;&gt;Yield -->
<g id="edge6" class="edge"><title>Site&#45;&gt;Yield</title>
<path style="fill:none;stroke:#5d1cec;" d="M888,-743C932,-736 1000,-724 1022,-712 1082,-679 1102,-664 1127,-602 1155,-533 1140,-495 1091,-440 1084,-432 1075,-425 1066,-420"/>
<ellipse style="fill:none;stroke:#5d1cec;" cx="883.969" cy="-743.504" rx="4.00001" ry="4.00001"/>
<polygon style="fill:#5d1cec;stroke:#5d1cec;" points="1065.74,-419.856 1059.19,-411.066 1061.37,-417.428 1057,-415 1057,-415 1057,-415 1061.37,-417.428 1054.81,-418.934 1065.74,-419.856 1065.74,-419.856"/>
</g>
<!-- Input -->
<g id="node19" class="node"><title>Input</title>
<ellipse style="fill:none;stroke:black;" cx="849" cy="-182" rx="36.8288" ry="18"/>
<text text-anchor="middle" x="849" y="-177.9" style="font-family:Times New Roman;font-size:14.00;">Input</text>
</g>
<!-- Site&#45;&gt;Input -->
<g id="edge12" class="edge"><title>Site&#45;&gt;Input</title>
<path style="fill:none;stroke:#cb287c;" d="M889,-744C920,-738 960,-724 976,-692 1002,-642 991,-619 973,-566 956,-510 916,-506 916,-449 916,-449 916,-449 916,-256 916,-233 899,-214 883,-202"/>
<ellipse style="fill:none;stroke:#cb287c;" cx="884.969" cy="-744.504" rx="4.00001" ry="4.00001"/>
<polygon style="fill:#cb287c;stroke:#cb287c;" points="882.321,-201.547 876.496,-192.256 878.16,-198.774 874,-196 874,-196 874,-196 878.16,-198.774 871.504,-199.744 882.321,-201.547 882.321,-201.547"/>
</g>
<!-- Citation -->
<g id="node22" class="node"><title>Citation</title>
<ellipse style="fill:none;stroke:black;" cx="584" cy="-674" rx="48.8383" ry="18"/>
<text text-anchor="middle" x="584" y="-669.9" style="font-family:Times New Roman;font-size:14.00;">Citation</text>
</g>
<!-- Site&#45;&gt;Citation -->
<g id="edge4" class="edge"><title>Site&#45;&gt;Citation</title>
<path style="fill:none;stroke:#66e458;" d="M813,-737C767,-725 685,-702 633,-688"/>
<polygon style="fill:#66e458;stroke:#66e458;" points="813.422,-737.126 821.707,-744.31 818.211,-738.563 823,-740 823,-740 823,-740 818.211,-738.563 824.293,-735.69 813.422,-737.126 813.422,-737.126"/>
<polygon style="fill:#66e458;stroke:#66e458;" points="632.578,-687.874 624.293,-680.69 627.789,-686.437 623,-685 623,-685 623,-685 627.789,-686.437 621.707,-689.31 632.578,-687.874 632.578,-687.874"/>
</g>
<!-- Run -->
<g id="node28" class="node"><title>Run</title>
<ellipse style="fill:none;stroke:black;" cx="722" cy="-92" rx="29.8799" ry="18"/>
<text text-anchor="middle" x="722" y="-87.9" style="font-family:Times New Roman;font-size:14.00;">Run</text>
</g>
<!-- Site&#45;&gt;Run -->
<g id="edge10" class="edge"><title>Site&#45;&gt;Run</title>
<path style="fill:none;stroke:#f54387;" d="M813,-744C751,-736 628,-719 526,-692 411,-661 372,-669 274,-602 201,-551 145,-537 145,-449 145,-449 145,-449 145,-293 145,-200 224,-201 308,-164 375,-133 593,-106 682,-96"/>
<ellipse style="fill:none;stroke:#f54387;" cx="817.031" cy="-744.504" rx="4.00001" ry="4.00001"/>
<polygon style="fill:#f54387;stroke:#f54387;" points="682.05,-95.9951 692.448,-99.4777 687.025,-95.4976 692,-95 692,-95 692,-95 687.025,-95.4976 691.552,-90.5223 682.05,-95.9951 682.05,-95.9951"/>
</g>
<!-- Trait -->
<g id="node32" class="node"><title>Trait</title>
<ellipse style="fill:none;stroke:black;" cx="722" cy="-404" rx="32.157" ry="18"/>
<text text-anchor="middle" x="722" y="-399.9" style="font-family:Times New Roman;font-size:14.00;">Trait</text>
</g>
<!-- Site&#45;&gt;Trait -->
<g id="edge8" class="edge"><title>Site&#45;&gt;Trait</title>
<path style="fill:none;stroke:#c6454d;" d="M888,-739C912,-731 942,-716 956,-692 968,-672 973,-602 951,-566 929,-527 904,-536 867,-512 833,-488 825,-482 791,-458 777,-447 761,-436 749,-426"/>
<ellipse style="fill:none;stroke:#c6454d;" cx="883.881" cy="-740.03" rx="4.00001" ry="4.00001"/>
<polygon style="fill:#c6454d;stroke:#c6454d;" points="748.526,-425.585 743.963,-415.613 744.763,-422.293 741,-419 741,-419 741,-419 744.763,-422.293 738.037,-422.387 748.526,-425.585 748.526,-425.585"/>
</g>
<!-- Pft -->
<g id="node3" class="node"><title>Pft</title>
<ellipse style="fill:none;stroke:black;" cx="1239" cy="-674" rx="27" ry="18"/>
<text text-anchor="middle" x="1239" y="-669.9" style="font-family:Times New Roman;font-size:14.00;">Pft</text>
</g>
<!-- Prior -->
<g id="node31" class="node"><title>Prior</title>
<ellipse style="fill:none;stroke:black;" cx="854" cy="-256" rx="34.0492" ry="18"/>
<text text-anchor="middle" x="854" y="-251.9" style="font-family:Times New Roman;font-size:14.00;">Prior</text>
</g>
<!-- Pft&#45;&gt;Prior -->
<g id="edge14" class="edge"><title>Pft&#45;&gt;Prior</title>
<path style="fill:none;stroke:#8168db;" d="M1231,-646C1227,-629 1222,-605 1222,-584 1222,-584 1222,-584 1222,-330 1222,-297 995,-270 898,-260"/>
<polygon style="fill:#8168db;stroke:#8168db;" points="1231.13,-646.422 1229.69,-657.293 1232.56,-651.211 1234,-656 1234,-656 1234,-656 1232.56,-651.211 1238.31,-654.707 1231.13,-646.422 1231.13,-646.422"/>
<polygon style="fill:#8168db;stroke:#8168db;" points="897.95,-259.995 888.448,-254.522 892.975,-259.498 888,-259 888,-259 888,-259 892.975,-259.498 887.552,-263.478 897.95,-259.995 897.95,-259.995"/>
</g>
<!-- Posterior -->
<g id="node39" class="node"><title>Posterior</title>
<ellipse style="fill:none;stroke:black;" cx="1057" cy="-18" rx="54.2008" ry="18"/>
<text text-anchor="middle" x="1057" y="-13.9" style="font-family:Times New Roman;font-size:14.00;">Posterior</text>
</g>
<!-- Pft&#45;&gt;Posterior -->
<g id="edge18" class="edge"><title>Pft&#45;&gt;Posterior</title>
<path style="fill:none;stroke:#32d80e;" d="M1248,-648C1254,-631 1260,-607 1260,-584 1260,-584 1260,-584 1260,-92 1260,-61 1176,-39 1116,-28"/>
<ellipse style="fill:none;stroke:#32d80e;" cx="1246.97" cy="-652.119" rx="4.00001" ry="4.00001"/>
<polygon style="fill:#32d80e;stroke:#32d80e;" points="1115.81,-27.9612 1106.88,-21.5874 1110.9,-26.9806 1106,-26 1106,-26 1106,-26 1110.9,-26.9806 1105.12,-30.4126 1115.81,-27.9612 1115.81,-27.9612"/>
</g>
<!-- Specie -->
<g id="node42" class="node"><title>Specie</title>
<ellipse style="fill:none;stroke:black;" cx="1077" cy="-584" rx="41.1906" ry="18"/>
<text text-anchor="middle" x="1077" y="-579.9" style="font-family:Times New Roman;font-size:14.00;">Specie</text>
</g>
<!-- Pft&#45;&gt;Specie -->
<g id="edge16" class="edge"><title>Pft&#45;&gt;Specie</title>
<path style="fill:none;stroke:#81beab;" d="M1209,-657C1181,-642 1140,-619 1111,-603"/>
<polygon style="fill:#81beab;stroke:#81beab;" points="1209.26,-657.144 1215.81,-665.934 1213.63,-659.572 1218,-662 1218,-662 1218,-662 1213.63,-659.572 1220.19,-658.066 1209.26,-657.144 1209.26,-657.144"/>
<polygon style="fill:#81beab;stroke:#81beab;" points="1110.74,-602.856 1104.19,-594.066 1106.37,-600.428 1102,-598 1102,-598 1102,-598 1106.37,-600.428 1099.81,-601.934 1110.74,-602.856 1110.74,-602.856"/>
</g>
<!-- Service -->
<g id="node5" class="node"><title>Service</title>
<ellipse style="fill:none;stroke:black;" cx="772" cy="-851" rx="45.8622" ry="18"/>
<text text-anchor="middle" x="772" y="-846.9" style="font-family:Times New Roman;font-size:14.00;">Service</text>
</g>
<!-- Machine -->
<g id="node6" class="node"><title>Machine</title>
<ellipse style="fill:none;stroke:black;" cx="1262" cy="-851" rx="50.2242" ry="18"/>
<text text-anchor="middle" x="1262" y="-846.9" style="font-family:Times New Roman;font-size:14.00;">Machine</text>
</g>
<!-- BetyFile -->
<g id="node53" class="node"><title>BetyFile</title>
<ellipse style="fill:none;stroke:black;" cx="1262" cy="-748" rx="50.0315" ry="18"/>
<text text-anchor="middle" x="1262" y="-743.9" style="font-family:Times New Roman;font-size:14.00;">BetyFile</text>
</g>
<!-- Machine&#45;&gt;BetyFile -->
<g id="edge20" class="edge"><title>Machine&#45;&gt;BetyFile</title>
<path style="fill:none;stroke:#8b7708;" d="M1262,-825C1262,-810 1262,-791 1262,-776"/>
<ellipse style="fill:none;stroke:#8b7708;" cx="1262" cy="-829" rx="4" ry="4"/>
<polygon style="fill:#8b7708;stroke:#8b7708;" points="1262,-776 1266.5,-766 1262,-771 1262,-766 1262,-766 1262,-766 1262,-771 1257.5,-766 1262,-776 1262,-776"/>
</g>
<!-- Variable -->
<g id="node7" class="node"><title>Variable</title>
<ellipse style="fill:none;stroke:black;" cx="662" cy="-330" rx="50.0315" ry="18"/>
<text text-anchor="middle" x="662" y="-325.9" style="font-family:Times New Roman;font-size:14.00;">Variable</text>
</g>
<!-- Variable&#45;&gt;Input -->
<g id="edge34" class="edge"><title>Variable&#45;&gt;Input</title>
<path style="fill:none;stroke:#711884;" d="M660,-302C661,-281 664,-255 679,-238 718,-194 749,-218 803,-200 806,-199 808,-198 811,-197"/>
<polygon style="fill:#711884;stroke:#711884;" points="660,-302 655.5,-312 660,-307 660,-312 660,-312 660,-312 660,-307 664.5,-312 660,-302 660,-302"/>
<polygon style="fill:#711884;stroke:#711884;" points="810.862,-197.061 821.828,-197.112 815.431,-195.031 820,-193 820,-193 820,-193 815.431,-195.031 818.172,-188.888 810.862,-197.061 810.862,-197.061"/>
</g>
<!-- Likelihood -->
<g id="node29" class="node"><title>Likelihood</title>
<ellipse style="fill:none;stroke:black;" cx="722" cy="-18" rx="59.065" ry="18"/>
<text text-anchor="middle" x="722" y="-13.9" style="font-family:Times New Roman;font-size:14.00;">Likelihood</text>
</g>
<!-- Variable&#45;&gt;Likelihood -->
<g id="edge32" class="edge"><title>Variable&#45;&gt;Likelihood</title>
<path style="fill:none;stroke:#fa550f;" d="M604,-327C476,-319 183,-297 183,-256 183,-256 183,-256 183,-92 183,-45 508,-26 653,-20"/>
<ellipse style="fill:none;stroke:#fa550f;" cx="608" cy="-327" rx="4" ry="4"/>
<polygon style="fill:#fa550f;stroke:#fa550f;" points="653,-20.0001 663,-24.5 658,-20 663,-20 663,-20 663,-20 658,-20 663,-15.5 653,-20.0001 653,-20.0001"/>
</g>
<!-- Format -->
<g id="node30" class="node"><title>Format</title>
<ellipse style="fill:none;stroke:black;" cx="587" cy="-256" rx="45.1673" ry="18"/>
<text text-anchor="middle" x="587" y="-251.9" style="font-family:Times New Roman;font-size:14.00;">Format</text>
</g>
<!-- Variable&#45;&gt;Format -->
<g id="edge28" class="edge"><title>Variable&#45;&gt;Format</title>
<path style="fill:none;stroke:#830e40;" d="M637,-306C629,-298 620,-289 611,-280"/>
<polygon style="fill:#830e40;stroke:#830e40;" points="637.474,-306.415 642.037,-316.387 641.237,-309.707 645,-313 645,-313 645,-313 641.237,-309.707 647.963,-309.613 637.474,-306.415 637.474,-306.415"/>
<polygon style="fill:#830e40;stroke:#830e40;" points="611.071,-280.071 607.182,-269.818 607.536,-276.536 604,-273 604,-273 604,-273 607.536,-276.536 600.818,-276.182 611.071,-280.071 611.071,-280.071"/>
</g>
<!-- Variable&#45;&gt;Prior -->
<g id="edge30" class="edge"><title>Variable&#45;&gt;Prior</title>
<path style="fill:none;stroke:#7e15cf;" d="M705,-314C735,-303 776,-288 811,-274 813,-273 815,-272 818,-271"/>
<ellipse style="fill:none;stroke:#7e15cf;" cx="700.745" cy="-315.595" rx="4.00001" ry="4.00001"/>
<polygon style="fill:#7e15cf;stroke:#7e15cf;" points="817.862,-271.061 828.828,-271.112 822.431,-269.031 827,-267 827,-267 827,-267 822.431,-269.031 825.172,-262.888 817.862,-271.061 817.862,-271.061"/>
</g>
<!-- Variable&#45;&gt;Trait -->
<g id="edge24" class="edge"><title>Variable&#45;&gt;Trait</title>
<path style="fill:none;stroke:#d53d14;" d="M687,-353C694,-361 702,-370 708,-378"/>
<ellipse style="fill:none;stroke:#d53d14;" cx="683.828" cy="-349.828" rx="4.00002" ry="4.00002"/>
<polygon style="fill:#d53d14;stroke:#d53d14;" points="708,-378 710.4,-388.7 711,-382 714,-386 714,-386 714,-386 711,-382 717.6,-383.3 708,-378 708,-378"/>
</g>
<!-- Covariate -->
<g id="node33" class="node"><title>Covariate</title>
<ellipse style="fill:none;stroke:black;" cx="745" cy="-256" rx="57.1737" ry="18"/>
<text text-anchor="middle" x="745" y="-251.9" style="font-family:Times New Roman;font-size:14.00;">Covariate</text>
</g>
<!-- Variable&#45;&gt;Covariate -->
<g id="edge22" class="edge"><title>Variable&#45;&gt;Covariate</title>
<path style="fill:none;stroke:#e169da;" d="M685,-307C691,-302 697,-297 702,-292 706,-288 711,-284 716,-280"/>
<ellipse style="fill:none;stroke:#e169da;" cx="681.828" cy="-310.172" rx="4.00002" ry="4.00002"/>
<polygon style="fill:#e169da;stroke:#e169da;" points="716.474,-279.585 726.963,-276.387 720.237,-276.293 724,-273 724,-273 724,-273 720.237,-276.293 721.037,-269.613 716.474,-279.585 716.474,-279.585"/>
</g>
<!-- FormatsVariable -->
<g id="node41" class="node"><title>FormatsVariable</title>
<ellipse style="fill:none;stroke:black;" cx="405" cy="-182" rx="87.7515" ry="18"/>
<text text-anchor="middle" x="405" y="-177.9" style="font-family:Times New Roman;font-size:14.00;">FormatsVariable</text>
</g>
<!-- Variable&#45;&gt;FormatsVariable -->
<g id="edge26" class="edge"><title>Variable&#45;&gt;FormatsVariable</title>
<path style="fill:none;stroke:#401026;" d="M619,-314C594,-303 561,-289 533,-274 498,-253 461,-225 435,-206"/>
<ellipse style="fill:none;stroke:#401026;" cx="623.255" cy="-315.595" rx="4.00001" ry="4.00001"/>
<polygon style="fill:#401026;stroke:#401026;" points="435,-206 429.7,-196.4 431,-203 427,-200 427,-200 427,-200 431,-203 424.3,-203.6 435,-206 435,-206"/>
</g>
<!-- PosteriorsRuns -->
<g id="node8" class="node"><title>PosteriorsRuns</title>
<ellipse style="fill:none;stroke:black;" cx="1412" cy="-851" rx="81.9961" ry="18"/>
<text text-anchor="middle" x="1412" y="-846.9" style="font-family:Times New Roman;font-size:14.00;">PosteriorsRuns</text>
</g>
<!-- Mimetype -->
<g id="node9" class="node"><title>Mimetype</title>
<ellipse style="fill:none;stroke:black;" cx="1570" cy="-851" rx="57.8712" ry="18"/>
<text text-anchor="middle" x="1570" y="-846.9" style="font-family:Times New Roman;font-size:14.00;">Mimetype</text>
</g>
<!-- CountyPath -->
<g id="node10" class="node"><title>CountyPath</title>
<ellipse style="fill:none;stroke:black;" cx="1514" cy="-748" rx="68.0985" ry="18"/>
<text text-anchor="middle" x="1514" y="-743.9" style="font-family:Times New Roman;font-size:14.00;">CountyPath</text>
</g>
<!-- User -->
<g id="node11" class="node"><title>User</title>
<ellipse style="fill:none;stroke:black;" cx="299" cy="-851" rx="32.8565" ry="18"/>
<text text-anchor="middle" x="299" y="-846.9" style="font-family:Times New Roman;font-size:14.00;">User</text>
</g>
<!-- User&#45;&gt;Site -->
<g id="edge46" class="edge"><title>User&#45;&gt;Site</title>
<path style="fill:none;stroke:#5b22a7;" d="M338,-843C440,-825 711,-775 812,-755"/>
<ellipse style="fill:none;stroke:#5b22a7;" cx="333.881" cy="-844.03" rx="4.00001" ry="4.00001"/>
<polygon style="fill:#5b22a7;stroke:#5b22a7;" points="812.194,-754.961 822.883,-757.413 817.097,-753.981 822,-753 822,-753 822,-753 817.097,-753.981 821.117,-748.587 812.194,-754.961 812.194,-754.961"/>
</g>
<!-- Management -->
<g id="node12" class="node"><title>Management</title>
<ellipse style="fill:none;stroke:black;" cx="356" cy="-584" rx="73.1565" ry="18"/>
<text text-anchor="middle" x="356" y="-579.9" style="font-family:Times New Roman;font-size:14.00;">Management</text>
</g>
<!-- User&#45;&gt;Management -->
<g id="edge42" class="edge"><title>User&#45;&gt;Management</title>
<path style="fill:none;stroke:#5fbb0e;" d="M305,-825C316,-774 340,-664 350,-612"/>
<ellipse style="fill:none;stroke:#5fbb0e;" cx="303.97" cy="-829.119" rx="4.00001" ry="4.00001"/>
<polygon style="fill:#5fbb0e;stroke:#5fbb0e;" points="350.039,-611.806 356.413,-602.883 351.019,-606.903 352,-602 352,-602 352,-602 351.019,-606.903 347.587,-601.117 350.039,-611.806 350.039,-611.806"/>
</g>
<!-- User&#45;&gt;Yield -->
<g id="edge38" class="edge"><title>User&#45;&gt;Yield</title>
<path style="fill:none;stroke:#76631d;" d="M340,-846C513,-827 1184,-751 1184,-748 1184,-748 1184,-748 1184,-494 1184,-442 1118,-419 1073,-410"/>
<ellipse style="fill:none;stroke:#76631d;" cx="335.969" cy="-846.504" rx="4.00001" ry="4.00001"/>
<polygon style="fill:#76631d;stroke:#76631d;" points="1072.81,-409.961 1063.88,-403.587 1067.9,-408.981 1063,-408 1063,-408 1063,-408 1067.9,-408.981 1062.12,-412.413 1072.81,-409.961 1072.81,-409.961"/>
</g>
<!-- Treatment -->
<g id="node18" class="node"><title>Treatment</title>
<ellipse style="fill:none;stroke:black;" cx="489" cy="-494" rx="59.9551" ry="18"/>
<text text-anchor="middle" x="489" y="-489.9" style="font-family:Times New Roman;font-size:14.00;">Treatment</text>
</g>
<!-- User&#45;&gt;Treatment -->
<g id="edge44" class="edge"><title>User&#45;&gt;Treatment</title>
<path style="fill:none;stroke:#0d039f;" d="M279,-829C255,-801 217,-757 217,-748 217,-748 217,-748 217,-584 217,-572 356,-532 435,-509"/>
<ellipse style="fill:none;stroke:#0d039f;" cx="281.439" cy="-831.927" rx="4.00002" ry="4.00002"/>
<polygon style="fill:#0d039f;stroke:#0d039f;" points="435.422,-508.874 446.293,-510.31 440.211,-507.437 445,-506 445,-506 445,-506 440.211,-507.437 443.707,-501.69 435.422,-508.874 435.422,-508.874"/>
</g>
<!-- User&#45;&gt;Citation -->
<g id="edge40" class="edge"><title>User&#45;&gt;Citation</title>
<path style="fill:none;stroke:#9e7f56;" d="M328,-833C381,-800 494,-731 550,-695"/>
<ellipse style="fill:none;stroke:#9e7f56;" cx="324.473" cy="-835.015" rx="4.00002" ry="4.00002"/>
<polygon style="fill:#9e7f56;stroke:#9e7f56;" points="550.258,-694.856 561.185,-693.934 554.629,-692.428 559,-690 559,-690 559,-690 554.629,-692.428 556.815,-686.066 550.258,-694.856 550.258,-694.856"/>
</g>
<!-- User&#45;&gt;Trait -->
<g id="edge36" class="edge"><title>User&#45;&gt;Trait</title>
<path style="fill:none;stroke:#ab82e8;" d="M280,-828C274,-820 266,-811 257,-804 221,-773 167,-795 167,-748 167,-748 167,-748 167,-584 167,-569 216,-554 302,-530 340,-519 356,-534 387,-512 417,-490 397,-459 428,-440 476,-409 627,-435 681,-422 684,-422 686,-421 689,-420"/>
<ellipse style="fill:none;stroke:#ab82e8;" cx="283.172" cy="-831.172" rx="4.00002" ry="4.00002"/>
<polygon style="fill:#ab82e8;stroke:#ab82e8;" points="688.862,-420.061 699.828,-420.112 693.431,-418.031 698,-416 698,-416 698,-416 693.431,-418.031 696.172,-411.888 688.862,-420.061 688.862,-420.061"/>
</g>
<!-- ManagementsTreatments -->
<g id="node15" class="node"><title>ManagementsTreatments</title>
<ellipse style="fill:none;stroke:black;" cx="305" cy="-404" rx="132.222" ry="18"/>
<text text-anchor="middle" x="305" y="-399.9" style="font-family:Times New Roman;font-size:14.00;">ManagementsTreatments</text>
</g>
<!-- Management&#45;&gt;ManagementsTreatments -->
<g id="edge48" class="edge"><title>Management&#45;&gt;ManagementsTreatments</title>
<path style="fill:none;stroke:#c3a08a;" d="M305,-566C280,-555 252,-537 238,-512 223,-484 223,-467 239,-440 242,-435 246,-431 251,-427"/>
<ellipse style="fill:none;stroke:#c3a08a;" cx="308.323" cy="-567.424" rx="4.00002" ry="4.00002"/>
<polygon style="fill:#c3a08a;stroke:#c3a08a;" points="251,-427 261.7,-424.6 255,-424 259,-421 259,-421 259,-421 255,-424 256.3,-417.4 251,-427 251,-427"/>
<text text-anchor="middle" x="332" y="-489.9" style="font-family:Times New Roman;font-size:14.00;">managements_treatments</text>
</g>
<!-- Management&#45;&gt;Treatment -->
<g id="edge50" class="edge"><title>Management&#45;&gt;Treatment</title>
<path style="fill:none;stroke:#b2cc89;" d="M390,-561C410,-548 436,-530 456,-517"/>
<polygon style="fill:#b2cc89;stroke:#b2cc89;" points="389.321,-561.453 378.504,-563.256 385.16,-564.226 381,-567 381,-567 381,-567 385.16,-564.226 383.496,-570.744 389.321,-561.453 389.321,-561.453"/>
<polygon style="fill:#b2cc89;stroke:#b2cc89;" points="456.679,-516.547 467.496,-514.744 460.84,-513.774 465,-511 465,-511 465,-511 460.84,-513.774 462.504,-507.256 456.679,-516.547 456.679,-516.547"/>
</g>
<!-- Yieldsview -->
<g id="node13" class="node"><title>Yieldsview</title>
<ellipse style="fill:none;stroke:black;" cx="1817" cy="-851" rx="61.1496" ry="18"/>
<text text-anchor="middle" x="1817" y="-846.9" style="font-family:Times New Roman;font-size:14.00;">Yieldsview</text>
</g>
<!-- Cultivar -->
<g id="node14" class="node"><title>Cultivar</title>
<ellipse style="fill:none;stroke:black;" cx="1031" cy="-494" rx="48.8383" ry="18"/>
<text text-anchor="middle" x="1031" y="-489.9" style="font-family:Times New Roman;font-size:14.00;">Cultivar</text>
</g>
<!-- Cultivar&#45;&gt;Yield -->
<g id="edge54" class="edge"><title>Cultivar&#45;&gt;Yield</title>
<path style="fill:none;stroke:#0f185e;" d="M1031,-468C1031,-457 1031,-444 1031,-432"/>
<ellipse style="fill:none;stroke:#0f185e;" cx="1031" cy="-472" rx="4" ry="4"/>
<polygon style="fill:#0f185e;stroke:#0f185e;" points="1031,-432 1035.5,-422 1031,-427 1031,-422 1031,-422 1031,-422 1031,-427 1026.5,-422 1031,-432 1031,-432"/>
</g>
<!-- Cultivar&#45;&gt;Trait -->
<g id="edge52" class="edge"><title>Cultivar&#45;&gt;Trait</title>
<path style="fill:none;stroke:#ec71f3;" d="M984,-481C924,-463 817,-432 760,-415"/>
<ellipse style="fill:none;stroke:#ec71f3;" cx="988.119" cy="-482.03" rx="4.00001" ry="4.00001"/>
<polygon style="fill:#ec71f3;stroke:#ec71f3;" points="759.578,-414.874 751.293,-407.69 754.789,-413.437 750,-412 750,-412 750,-412 754.789,-413.437 748.707,-416.31 759.578,-414.874 759.578,-414.874"/>
</g>
<!-- CountyBoundary -->
<g id="node17" class="node"><title>CountyBoundary</title>
<ellipse style="fill:none;stroke:black;" cx="1692" cy="-748" rx="91.9198" ry="18"/>
<text text-anchor="middle" x="1692" y="-743.9" style="font-family:Times New Roman;font-size:14.00;">CountyBoundary</text>
</g>
<!-- Treatment&#45;&gt;ManagementsTreatments -->
<g id="edge60" class="edge"><title>Treatment&#45;&gt;ManagementsTreatments</title>
<path style="fill:none;stroke:#70088f;" d="M429,-484C412,-481 394,-479 377,-476 348,-471 266,-480 246,-458 237,-447 245,-436 258,-426"/>
<ellipse style="fill:none;stroke:#70088f;" cx="433.031" cy="-484.504" rx="4.00001" ry="4.00001"/>
<polygon style="fill:#70088f;stroke:#70088f;" points="257.52,-426.3 268.385,-424.816 261.76,-423.65 266,-421 266,-421 266,-421 261.76,-423.65 263.615,-417.184 257.52,-426.3 257.52,-426.3"/>
<text text-anchor="middle" x="341" y="-444.9" style="font-family:Times New Roman;font-size:14.00;">managements_treatments</text>
</g>
<!-- Treatment&#45;&gt;Yield -->
<g id="edge58" class="edge"><title>Treatment&#45;&gt;Yield</title>
<path style="fill:none;stroke:#8ff92f;" d="M550,-484C661,-466 893,-427 989,-411"/>
<ellipse style="fill:none;stroke:#8ff92f;" cx="545.969" cy="-484.504" rx="4.00001" ry="4.00001"/>
<polygon style="fill:#8ff92f;stroke:#8ff92f;" points="989.194,-410.961 999.883,-413.413 994.097,-409.981 999,-409 999,-409 999,-409 994.097,-409.981 998.117,-404.587 989.194,-410.961 989.194,-410.961"/>
</g>
<!-- Treatment&#45;&gt;Citation -->
<g id="edge64" class="edge"><title>Treatment&#45;&gt;Citation</title>
<path style="fill:none;stroke:#52a19a;" d="M474,-522C473,-524 472,-527 471,-530 460,-576 451,-600 481,-638 488,-647 511,-655 533,-661"/>
<polygon style="fill:#52a19a;stroke:#52a19a;" points="474.286,-521.285 482.178,-513.671 476.143,-516.642 478,-512 478,-512 478,-512 476.143,-516.642 473.822,-510.329 474.286,-521.285 474.286,-521.285"/>
<polygon style="fill:#52a19a;stroke:#52a19a;" points="533.422,-661.126 541.707,-668.31 538.211,-662.563 543,-664 543,-664 543,-664 538.211,-662.563 544.293,-659.69 533.422,-661.126 533.422,-661.126"/>
</g>
<!-- CitationsTreatments -->
<g id="node25" class="node"><title>CitationsTreatments</title>
<ellipse style="fill:none;stroke:black;" cx="564" cy="-404" rx="107.902" ry="18"/>
<text text-anchor="middle" x="564" y="-399.9" style="font-family:Times New Roman;font-size:14.00;">CitationsTreatments</text>
</g>
<!-- Treatment&#45;&gt;CitationsTreatments -->
<g id="edge62" class="edge"><title>Treatment&#45;&gt;CitationsTreatments</title>
<path style="fill:none;stroke:#efa996;" d="M450,-474C436,-464 426,-452 435,-440 441,-431 458,-425 478,-420"/>
<ellipse style="fill:none;stroke:#efa996;" cx="453.745" cy="-476.675" rx="4.00002" ry="4.00002"/>
<polygon style="fill:#efa996;stroke:#efa996;" points="478.422,-419.874 489.293,-421.31 483.211,-418.437 488,-417 488,-417 488,-417 483.211,-418.437 486.707,-412.69 478.422,-419.874 478.422,-419.874"/>
<text text-anchor="middle" x="508" y="-444.9" style="font-family:Times New Roman;font-size:14.00;">citations_treatments</text>
</g>
<!-- Treatment&#45;&gt;Trait -->
<g id="edge56" class="edge"><title>Treatment&#45;&gt;Trait</title>
<path style="fill:none;stroke:#c71b8d;" d="M534,-477C568,-463 613,-447 631,-440 654,-431 660,-430 681,-422 683,-421 685,-420 688,-419"/>
<ellipse style="fill:none;stroke:#c71b8d;" cx="529.745" cy="-478.595" rx="4.00001" ry="4.00001"/>
<polygon style="fill:#c71b8d;stroke:#c71b8d;" points="687.862,-419.061 698.828,-419.112 692.431,-417.031 697,-415 697,-415 697,-415 692.431,-417.031 695.172,-410.888 687.862,-419.061 687.862,-419.061"/>
</g>
<!-- Input&#45;&gt;Input -->
<g id="edge72" class="edge"><title>Input&#45;&gt;Input</title>
<path style="fill:none;stroke:#e53807;" d="M892,-188C899,-187 904,-185 904,-182 904,-179 900,-177 894,-176"/>
<ellipse style="fill:none;stroke:#e53807;" cx="887.969" cy="-188.504" rx="4.00001" ry="4.00001"/>
<polygon style="fill:#e53807;stroke:#e53807;" points="893.95,-175.995 884.448,-170.522 888.975,-175.498 884,-175 884,-175 884,-175 888.975,-175.498 883.552,-179.478 893.95,-175.995 893.95,-175.995"/>
<text text-anchor="middle" x="932" y="-177.9" style="font-family:Times New Roman;font-size:14.00;">children</text>
</g>
<!-- Input&#45;&gt;Run -->
<g id="edge66" class="edge"><title>Input&#45;&gt;Run</title>
<path style="fill:none;stroke:#4fc098;" d="M820,-161C799,-146 770,-126 749,-112"/>
<polygon style="fill:#4fc098;stroke:#4fc098;" points="820,-161 825.3,-170.6 824,-164 828,-167 828,-167 828,-167 824,-164 830.7,-163.4 820,-161 820,-161"/>
<polygon style="fill:#4fc098;stroke:#4fc098;" points="749,-112 743.7,-102.4 745,-109 741,-106 741,-106 741,-106 745,-109 738.3,-109.6 749,-112 749,-112"/>
</g>
<!-- Input&#45;&gt;Likelihood -->
<g id="edge68" class="edge"><title>Input&#45;&gt;Likelihood</title>
<path style="fill:none;stroke:#ded480;" d="M863,-157C864,-153 865,-149 866,-146 871,-126 867,-81 861,-74 843,-50 813,-36 786,-28"/>
<ellipse style="fill:none;stroke:#ded480;" cx="860.985" cy="-160.527" rx="4.00002" ry="4.00002"/>
<polygon style="fill:#ded480;stroke:#ded480;" points="785.578,-27.8735 777.293,-20.6898 780.789,-26.4368 776,-25 776,-25 776,-25 780.789,-26.4368 774.707,-29.3102 785.578,-27.8735 785.578,-27.8735"/>
</g>
<!-- DBFile -->
<g id="node79" class="node"><title>DBFile</title>
<ellipse style="fill:none;stroke:black;" cx="811" cy="-92" rx="41.1906" ry="18"/>
<text text-anchor="middle" x="811" y="-87.9" style="font-family:Times New Roman;font-size:14.00;">DBFile</text>
</g>
<!-- Input&#45;&gt;DBFile -->
<g id="edge70" class="edge"><title>Input&#45;&gt;DBFile</title>
<path style="fill:none;stroke:#ccd253;" d="M838,-156C833,-144 827,-131 822,-119"/>
<ellipse style="fill:none;stroke:#ccd253;" cx="839.595" cy="-160.255" rx="4.00001" ry="4.00001"/>
<polygon style="fill:#ccd253;stroke:#ccd253;" points="822.061,-119.138 822.112,-108.172 820.031,-114.569 818,-110 818,-110 818,-110 820.031,-114.569 813.888,-111.828 822.061,-119.138 822.061,-119.138"/>
<text text-anchor="middle" x="849" y="-132.9" style="font-family:Times New Roman;font-size:14.00;">files</text>
</g>
<!-- County -->
<g id="node20" class="node"><title>County</title>
<ellipse style="fill:none;stroke:black;" cx="1692" cy="-851" rx="45.8622" ry="18"/>
<text text-anchor="middle" x="1692" y="-846.9" style="font-family:Times New Roman;font-size:14.00;">County</text>
</g>
<!-- County&#45;&gt;CountyPath -->
<g id="edge76" class="edge"><title>County&#45;&gt;CountyPath</title>
<path style="fill:none;stroke:#8e92a5;" d="M1669,-829C1659,-820 1648,-811 1637,-804 1614,-789 1587,-776 1563,-767"/>
<ellipse style="fill:none;stroke:#8e92a5;" cx="1671.93" cy="-831.439" rx="4.00002" ry="4.00002"/>
<polygon style="fill:#8e92a5;stroke:#8e92a5;" points="1563.14,-767.061 1555.83,-758.888 1558.57,-765.031 1554,-763 1554,-763 1554,-763 1558.57,-765.031 1552.17,-767.112 1563.14,-767.061 1563.14,-767.061"/>
</g>
<!-- County&#45;&gt;CountyBoundary -->
<g id="edge74" class="edge"><title>County&#45;&gt;CountyBoundary</title>
<path style="fill:none;stroke:#c1bcaf;" d="M1692,-825C1692,-810 1692,-791 1692,-776"/>
<ellipse style="fill:none;stroke:#c1bcaf;" cx="1692" cy="-829" rx="4" ry="4"/>
<polygon style="fill:#c1bcaf;stroke:#c1bcaf;" points="1692,-776 1696.5,-766 1692,-771 1692,-766 1692,-766 1692,-766 1692,-771 1687.5,-766 1692,-776 1692,-776"/>
</g>
<!-- LocationYield -->
<g id="node37" class="node"><title>LocationYield</title>
<ellipse style="fill:none;stroke:black;" cx="1876" cy="-748" rx="73.8534" ry="18"/>
<text text-anchor="middle" x="1876" y="-743.9" style="font-family:Times New Roman;font-size:14.00;">LocationYield</text>
</g>
<!-- County&#45;&gt;LocationYield -->
<g id="edge78" class="edge"><title>County&#45;&gt;LocationYield</title>
<path style="fill:none;stroke:#0074aa;" d="M1715,-828C1724,-820 1736,-811 1747,-804 1771,-789 1799,-776 1824,-766"/>
<ellipse style="fill:none;stroke:#0074aa;" cx="1711.83" cy="-831.172" rx="4.00002" ry="4.00002"/>
<polygon style="fill:#0074aa;stroke:#0074aa;" points="1823.51,-766.162 1834.42,-767.269 1828.26,-764.581 1833,-763 1833,-763 1833,-763 1828.26,-764.581 1831.58,-758.731 1823.51,-766.162 1823.51,-766.162"/>
</g>
<!-- Entity -->
<g id="node21" class="node"><title>Entity</title>
<ellipse style="fill:none;stroke:black;" cx="1936" cy="-851" rx="39.8056" ry="18"/>
<text text-anchor="middle" x="1936" y="-846.9" style="font-family:Times New Roman;font-size:14.00;">Entity</text>
</g>
<!-- Entity&#45;&gt;Entity -->
<g id="edge80" class="edge"><title>Entity&#45;&gt;Entity</title>
<path style="fill:none;stroke:#462d88;" d="M1975,-863C1986,-862 1994,-858 1994,-851 1994,-844 1987,-840 1977,-839"/>
<ellipse style="fill:none;stroke:#462d88;" cx="1971" cy="-863" rx="4" ry="4"/>
<polygon style="fill:#462d88;stroke:#462d88;" points="1977,-839 1967,-834.5 1972,-839 1967,-839 1967,-839 1967,-839 1972,-839 1967,-843.5 1977,-839 1977,-839"/>
<text text-anchor="middle" x="2021" y="-846.9" style="font-family:Times New Roman;font-size:14.00;">children</text>
</g>
<!-- Citation&#45;&gt;CitationsSites -->
<g id="edge82" class="edge"><title>Citation&#45;&gt;CitationsSites</title>
<path style="fill:none;stroke:#d50b99;" d="M640,-669C675,-665 721,-656 758,-638 770,-632 770,-626 781,-620 791,-614 803,-608 814,-603"/>
<ellipse style="fill:none;stroke:#d50b99;" cx="635.969" cy="-669.504" rx="4.00001" ry="4.00001"/>
<polygon style="fill:#d50b99;stroke:#d50b99;" points="813.862,-603.061 824.828,-603.112 818.431,-601.031 823,-599 823,-599 823,-599 818.431,-601.031 821.172,-594.888 813.862,-603.061 813.862,-603.061"/>
<text text-anchor="middle" x="827" y="-624.9" style="font-family:Times New Roman;font-size:14.00;">citation_sites</text>
</g>
<!-- Citation&#45;&gt;Management -->
<g id="edge86" class="edge"><title>Citation&#45;&gt;Management</title>
<path style="fill:none;stroke:#68cbba;" d="M532,-664C505,-658 471,-650 443,-638 424,-630 404,-618 388,-607"/>
<ellipse style="fill:none;stroke:#68cbba;" cx="536.119" cy="-665.03" rx="4.00001" ry="4.00001"/>
<polygon style="fill:#68cbba;stroke:#68cbba;" points="388,-607 382.7,-597.4 384,-604 380,-601 380,-601 380,-601 384,-604 377.3,-604.6 388,-607 388,-607"/>
</g>
<!-- Citation&#45;&gt;Yield -->
<g id="edge88" class="edge"><title>Citation&#45;&gt;Yield</title>
<path style="fill:none;stroke:#f44777;" d="M637,-665C674,-658 718,-648 733,-638 764,-615 753,-592 779,-566 797,-548 936,-462 1000,-423"/>
<ellipse style="fill:none;stroke:#f44777;" cx="632.881" cy="-666.03" rx="4.00001" ry="4.00001"/>
<polygon style="fill:#f44777;stroke:#f44777;" points="1000.26,-422.856 1011.19,-421.934 1004.63,-420.428 1009,-418 1009,-418 1009,-418 1004.63,-420.428 1006.81,-414.066 1000.26,-422.856 1000.26,-422.856"/>
</g>
<!-- Citation&#45;&gt;CitationsTreatments -->
<g id="edge84" class="edge"><title>Citation&#45;&gt;CitationsTreatments</title>
<path style="fill:none;stroke:#ea802a;" d="M560,-651C537,-628 504,-589 491,-548 489,-540 487,-536 491,-530 510,-505 536,-532 558,-512 583,-489 585,-472 578,-440 578,-437 577,-434 576,-432"/>
<ellipse style="fill:none;stroke:#ea802a;" cx="563.172" cy="-654.172" rx="4.00002" ry="4.00002"/>
<polygon style="fill:#ea802a;stroke:#ea802a;" points="575.874,-431.578 577.31,-420.707 574.437,-426.789 573,-422 573,-422 573,-422 574.437,-426.789 568.69,-423.293 575.874,-431.578 575.874,-431.578"/>
<text text-anchor="middle" x="563" y="-534.9" style="font-family:Times New Roman;font-size:14.00;">citation_treatments</text>
</g>
<!-- Citation&#45;&gt;Prior -->
<g id="edge92" class="edge"><title>Citation&#45;&gt;Prior</title>
<path style="fill:none;stroke:#4bf6dd;" d="M622,-656C648,-643 683,-624 708,-602 748,-568 759,-558 783,-512 824,-435 843,-333 851,-284"/>
<ellipse style="fill:none;stroke:#4bf6dd;" cx="618.473" cy="-658.015" rx="4.00002" ry="4.00002"/>
<polygon style="fill:#4bf6dd;stroke:#4bf6dd;" points="851.005,-283.95 856.478,-274.448 851.502,-278.975 852,-274 852,-274 852,-274 851.502,-278.975 847.522,-273.552 851.005,-283.95 851.005,-283.95"/>
</g>
<!-- Citation&#45;&gt;Trait -->
<g id="edge90" class="edge"><title>Citation&#45;&gt;Trait</title>
<path style="fill:none;stroke:#bc948a;" d="M581,-648C580,-624 582,-590 598,-566 607,-553 618,-559 628,-548 652,-521 643,-505 661,-476 672,-458 687,-441 699,-427"/>
<ellipse style="fill:none;stroke:#bc948a;" cx="581.504" cy="-652.031" rx="4.00001" ry="4.00001"/>
<polygon style="fill:#bc948a;stroke:#bc948a;" points="698.929,-427.071 709.182,-423.182 702.464,-423.536 706,-420 706,-420 706,-420 702.464,-423.536 702.818,-416.818 698.929,-427.071 698.929,-427.071"/>
</g>
<!-- Methods -->
<g id="node38" class="node"><title>Methods</title>
<ellipse style="fill:none;stroke:black;" cx="722" cy="-494" rx="52.1162" ry="18"/>
<text text-anchor="middle" x="722" y="-489.9" style="font-family:Times New Roman;font-size:14.00;">Methods</text>
</g>
<!-- Citation&#45;&gt;Methods -->
<g id="edge94" class="edge"><title>Citation&#45;&gt;Methods</title>
<path style="fill:none;stroke:#182c80;" d="M587,-648C592,-624 601,-589 621,-566 632,-553 640,-557 653,-548 668,-538 682,-527 694,-517"/>
<ellipse style="fill:none;stroke:#182c80;" cx="586.496" cy="-652.031" rx="4.00001" ry="4.00001"/>
<polygon style="fill:#182c80;stroke:#182c80;" points="694,-517 704.7,-514.6 698,-514 702,-511 702,-511 702,-511 698,-514 699.3,-507.4 694,-517 694,-517"/>
<text text-anchor="middle" x="665" y="-579.9" style="font-family:Times New Roman;font-size:14.00;">ebi_methods</text>
</g>
<!-- InputsRuns -->
<g id="node23" class="node"><title>InputsRuns</title>
<ellipse style="fill:none;stroke:black;" cx="2131" cy="-851" rx="64.1231" ry="18"/>
<text text-anchor="middle" x="2131" y="-846.9" style="font-family:Times New Roman;font-size:14.00;">InputsRuns</text>
</g>
<!-- Error -->
<g id="node24" class="node"><title>Error</title>
<ellipse style="fill:none;stroke:black;" cx="2248" cy="-851" rx="34.9399" ry="18"/>
<text text-anchor="middle" x="2248" y="-846.9" style="font-family:Times New Roman;font-size:14.00;">Error</text>
</g>
<!-- InputsVariables -->
<g id="node26" class="node"><title>InputsVariables</title>
<ellipse style="fill:none;stroke:black;" cx="2386" cy="-851" rx="84.7756" ry="18"/>
<text text-anchor="middle" x="2386" y="-846.9" style="font-family:Times New Roman;font-size:14.00;">InputsVariables</text>
</g>
<!-- Model -->
<g id="node27" class="node"><title>Model</title>
<ellipse style="fill:none;stroke:black;" cx="550" cy="-182" rx="39.1069" ry="18"/>
<text text-anchor="middle" x="550" y="-177.9" style="font-family:Times New Roman;font-size:14.00;">Model</text>
</g>
<!-- Model&#45;&gt;Model -->
<g id="edge98" class="edge"><title>Model&#45;&gt;Model</title>
<path style="fill:none;stroke:#22d89b;" d="M594,-188C602,-187 607,-185 607,-182 607,-179 603,-177 596,-176"/>
<ellipse style="fill:none;stroke:#22d89b;" cx="589.969" cy="-188.504" rx="4.00001" ry="4.00001"/>
<polygon style="fill:#22d89b;stroke:#22d89b;" points="595.95,-175.995 586.448,-170.522 590.975,-175.498 586,-175 586,-175 586,-175 590.975,-175.498 585.552,-179.478 595.95,-175.995 595.95,-175.995"/>
<text text-anchor="middle" x="635" y="-177.9" style="font-family:Times New Roman;font-size:14.00;">children</text>
</g>
<!-- Model&#45;&gt;Run -->
<g id="edge96" class="edge"><title>Model&#45;&gt;Run</title>
<path style="fill:none;stroke:#8096e4;" d="M583,-164C614,-149 659,-124 690,-109"/>
<ellipse style="fill:none;stroke:#8096e4;" cx="579.473" cy="-166.015" rx="4.00002" ry="4.00002"/>
<polygon style="fill:#8096e4;stroke:#8096e4;" points="690.258,-108.856 701.185,-107.934 694.629,-106.428 699,-104 699,-104 699,-104 694.629,-106.428 696.815,-100.066 690.258,-108.856 690.258,-108.856"/>
</g>
<!-- Run&#45;&gt;Likelihood -->
<g id="edge102" class="edge"><title>Run&#45;&gt;Likelihood</title>
<path style="fill:none;stroke:#204e0c;" d="M722,-66C722,-60 722,-53 722,-46"/>
<ellipse style="fill:none;stroke:#204e0c;" cx="722" cy="-70" rx="4" ry="4"/>
<polygon style="fill:#204e0c;stroke:#204e0c;" points="722,-46 726.5,-36 722,-41 722,-36 722,-36 722,-36 722,-41 717.5,-36 722,-46 722,-46"/>
</g>
<!-- Run&#45;&gt;Posterior -->
<g id="edge100" class="edge"><title>Run&#45;&gt;Posterior</title>
<path style="fill:none;stroke:#adb02c;" d="M754,-76C757,-75 759,-74 761,-74 840,-48 935,-33 996,-25"/>
<polygon style="fill:#adb02c;stroke:#adb02c;" points="754.138,-75.9386 743.172,-75.8878 749.569,-77.9693 745,-80 745,-80 745,-80 749.569,-77.9693 746.828,-84.1122 754.138,-75.9386 754.138,-75.9386"/>
<polygon style="fill:#adb02c;stroke:#adb02c;" points="996.05,-24.9951 1006.45,-28.4777 1001.02,-24.4976 1006,-24 1006,-24 1006,-24 1001.02,-24.4976 1005.55,-19.5223 996.05,-24.9951 996.05,-24.9951"/>
</g>
<!-- Format&#45;&gt;Input -->
<g id="edge104" class="edge"><title>Format&#45;&gt;Input</title>
<path style="fill:none;stroke:#6056c7;" d="M614,-235C623,-229 635,-222 646,-218 713,-194 735,-216 803,-200 806,-199 809,-198 811,-197"/>
<ellipse style="fill:none;stroke:#6056c7;" cx="610.255" cy="-237.675" rx="4.00002" ry="4.00002"/>
<polygon style="fill:#6056c7;stroke:#6056c7;" points="811.422,-196.874 822.293,-198.31 816.211,-195.437 821,-194 821,-194 821,-194 816.211,-195.437 819.707,-189.69 811.422,-196.874 811.422,-196.874"/>
</g>
<!-- Format&#45;&gt;FormatsVariable -->
<g id="edge106" class="edge"><title>Format&#45;&gt;FormatsVariable</title>
<path style="fill:none;stroke:#fec162;" d="M547,-240C520,-229 483,-214 454,-202"/>
<ellipse style="fill:none;stroke:#fec162;" cx="551.255" cy="-241.595" rx="4.00001" ry="4.00001"/>
<polygon style="fill:#fec162;stroke:#fec162;" points="454.138,-202.061 446.828,-193.888 449.569,-200.031 445,-198 445,-198 445,-198 449.569,-200.031 443.172,-202.112 454.138,-202.061 454.138,-202.061"/>
</g>
<!-- Trait&#45;&gt;Variable -->
<g id="edge110" class="edge"><title>Trait&#45;&gt;Variable</title>
<path style="fill:none;stroke:#ced0c6;" d="M697,-381C690,-374 683,-365 677,-356"/>
<polygon style="fill:#ced0c6;stroke:#ced0c6;" points="697.415,-381.474 700.613,-391.963 700.707,-385.237 704,-389 704,-389 704,-389 700.707,-385.237 707.387,-386.037 697.415,-381.474 697.415,-381.474"/>
<polygon style="fill:#ced0c6;stroke:#ced0c6;" points="677,-356 674.6,-345.3 674,-352 671,-348 671,-348 671,-348 674,-352 667.4,-350.7 677,-356 677,-356"/>
</g>
<!-- Trait&#45;&gt;Covariate -->
<g id="edge108" class="edge"><title>Trait&#45;&gt;Covariate</title>
<path style="fill:none;stroke:#d21c0a;" d="M726,-378C730,-351 736,-311 741,-284"/>
<ellipse style="fill:none;stroke:#d21c0a;" cx="725.496" cy="-382.031" rx="4.00001" ry="4.00001"/>
<polygon style="fill:#d21c0a;stroke:#d21c0a;" points="741.005,-283.95 746.478,-274.448 741.502,-278.975 742,-274 742,-274 742,-274 741.502,-278.975 737.522,-273.552 741.005,-283.95 741.005,-283.95"/>
</g>
<!-- Workflow -->
<g id="node34" class="node"><title>Workflow</title>
<ellipse style="fill:none;stroke:black;" cx="2546" cy="-851" rx="57.1737" ry="18"/>
<text text-anchor="middle" x="2546" y="-846.9" style="font-family:Times New Roman;font-size:14.00;">Workflow</text>
</g>
<!-- Ensemble -->
<g id="node35" class="node"><title>Ensemble</title>
<ellipse style="fill:none;stroke:black;" cx="737" cy="-182" rx="56.9803" ry="18"/>
<text text-anchor="middle" x="737" y="-177.9" style="font-family:Times New Roman;font-size:14.00;">Ensemble</text>
</g>
<!-- Ensemble&#45;&gt;Run -->
<g id="edge112" class="edge"><title>Ensemble&#45;&gt;Run</title>
<path style="fill:none;stroke:#57278a;" d="M733,-156C731,-145 729,-131 727,-120"/>
<ellipse style="fill:none;stroke:#57278a;" cx="733.504" cy="-160.031" rx="4.00001" ry="4.00001"/>
<polygon style="fill:#57278a;stroke:#57278a;" points="726.961,-119.806 729.413,-109.117 725.981,-114.903 725,-110 725,-110 725,-110 725.981,-114.903 720.587,-110.883 726.961,-119.806 726.961,-119.806"/>
</g>
<!-- PftsPriors -->
<g id="node36" class="node"><title>PftsPriors</title>
<ellipse style="fill:none;stroke:black;" cx="2678" cy="-851" rx="56.9803" ry="18"/>
<text text-anchor="middle" x="2678" y="-846.9" style="font-family:Times New Roman;font-size:14.00;">PftsPriors</text>
</g>
<!-- Methods&#45;&gt;Yield -->
<g id="edge116" class="edge"><title>Methods&#45;&gt;Yield</title>
<path style="fill:none;stroke:#7a35d8;" d="M770,-480C831,-462 935,-432 992,-416"/>
<ellipse style="fill:none;stroke:#7a35d8;" cx="765.881" cy="-481.03" rx="4.00001" ry="4.00001"/>
<polygon style="fill:#7a35d8;stroke:#7a35d8;" points="992.422,-415.874 1003.29,-417.31 997.211,-414.437 1002,-413 1002,-413 1002,-413 997.211,-414.437 1000.71,-408.69 992.422,-415.874 992.422,-415.874"/>
</g>
<!-- Methods&#45;&gt;Trait -->
<g id="edge114" class="edge"><title>Methods&#45;&gt;Trait</title>
<path style="fill:none;stroke:#a8f9b7;" d="M722,-468C722,-457 722,-444 722,-432"/>
<ellipse style="fill:none;stroke:#a8f9b7;" cx="722" cy="-472" rx="4" ry="4"/>
<polygon style="fill:#a8f9b7;stroke:#a8f9b7;" points="722,-432 726.5,-422 722,-427 722,-422 722,-422 722,-422 722,-427 717.5,-422 722,-432 722,-432"/>
</g>
<!-- Posterior&#45;&gt;Posterior -->
<g id="edge118" class="edge"><title>Posterior&#45;&gt;Posterior</title>
<path style="fill:none;stroke:#56a4c6;" d="M1115,-24C1124,-23 1129,-21 1129,-18 1129,-15 1125,-13 1117,-12"/>
<ellipse style="fill:none;stroke:#56a4c6;" cx="1110.97" cy="-24.5038" rx="4.00001" ry="4.00001"/>
<polygon style="fill:#56a4c6;stroke:#56a4c6;" points="1116.95,-11.9951 1107.45,-6.52233 1111.98,-11.4976 1107,-11 1107,-11 1107,-11 1111.98,-11.4976 1106.55,-15.4777 1116.95,-11.9951 1116.95,-11.9951"/>
<text text-anchor="middle" x="1157" y="-13.9" style="font-family:Times New Roman;font-size:14.00;">children</text>
</g>
<!-- PftsSpecies -->
<g id="node40" class="node"><title>PftsSpecies</title>
<ellipse style="fill:none;stroke:black;" cx="2817" cy="-851" rx="64.1231" ry="18"/>
<text text-anchor="middle" x="2817" y="-846.9" style="font-family:Times New Roman;font-size:14.00;">PftsSpecies</text>
</g>
<!-- Specie&#45;&gt;Cultivar -->
<g id="edge124" class="edge"><title>Specie&#45;&gt;Cultivar</title>
<path style="fill:none;stroke:#19a2d2;" d="M1064,-558C1058,-546 1051,-532 1045,-521"/>
<ellipse style="fill:none;stroke:#19a2d2;" cx="1066.21" cy="-562.422" rx="4.00002" ry="4.00002"/>
<polygon style="fill:#19a2d2;stroke:#19a2d2;" points="1044.86,-520.742 1043.93,-509.815 1042.43,-516.371 1040,-512 1040,-512 1040,-512 1042.43,-516.371 1036.07,-514.185 1044.86,-520.742 1044.86,-520.742"/>
</g>
<!-- Specie&#45;&gt;Yield -->
<g id="edge120" class="edge"><title>Specie&#45;&gt;Yield</title>
<path style="fill:none;stroke:#9a39f4;" d="M1086,-558C1093,-536 1099,-503 1089,-476 1082,-457 1069,-440 1056,-426"/>
<ellipse style="fill:none;stroke:#9a39f4;" cx="1084.97" cy="-562.119" rx="4.00001" ry="4.00001"/>
<polygon style="fill:#9a39f4;stroke:#9a39f4;" points="1056.07,-426.071 1052.18,-415.818 1052.54,-422.536 1049,-419 1049,-419 1049,-419 1052.54,-422.536 1045.82,-422.182 1056.07,-426.071 1056.07,-426.071"/>
</g>
<!-- Specie&#45;&gt;Trait -->
<g id="edge122" class="edge"><title>Specie&#45;&gt;Trait</title>
<path style="fill:none;stroke:#0ea4cd;" d="M1043,-566C974,-532 822,-454 755,-420"/>
<ellipse style="fill:none;stroke:#0ea4cd;" cx="1046.53" cy="-568.015" rx="4.00002" ry="4.00002"/>
<polygon style="fill:#0ea4cd;stroke:#0ea4cd;" points="755.138,-420.061 747.828,-411.888 750.569,-418.031 746,-416 746,-416 746,-416 750.569,-418.031 744.172,-420.112 755.138,-420.061 755.138,-420.061"/>
</g>
</g>
</svg>
